<svg id="Layer_1" data-name="Layer 1" xmlns="http://www.w3.org/2000/svg" xmlns:xlink="http://www.w3.org/1999/xlink" viewBox="0 0 1011.17 299.44"><defs><style>.cls-1{font-size:204.89px;}.cls-1,.cls-10,.cls-2{fill:none;}.cls-1,.cls-2{font-family:Impact;}.cls-2{font-size:72.48px;letter-spacing:0.06em;}.cls-3{clip-path:url(#clip-path);}.cls-4{fill:url(#linear-gradient);}.cls-5{fill:url(#linear-gradient-2);}.cls-6{fill:url(#linear-gradient-3);}.cls-7{fill:#fff;}.cls-8{clip-path:url(#clip-path-2);}.cls-9{fill:url(#linear-gradient-4);}.cls-10{stroke:#272e6f;stroke-miterlimit:10;stroke-width:3px;}</style><clipPath id="clip-path" transform="translate(-9.14 -455.39)"><text class="cls-1" transform="translate(333.52 647.87)">SAHARA</text></clipPath><linearGradient id="linear-gradient" x1="429.1" y1="317.56" x2="827.44" y2="-67.11" gradientUnits="userSpaceOnUse"><stop offset="0" stop-color="#011d76"/><stop offset="0.18" stop-color="#01228f"/><stop offset="0.53" stop-color="#002fca"/><stop offset="1" stop-color="#2b387f"/><stop offset="1" stop-color="#021d76"/></linearGradient><linearGradient id="linear-gradient-2" x1="96.31" y1="563.85" x2="321.49" y2="632.7" gradientUnits="userSpaceOnUse"><stop offset="0" stop-color="#d2a44e"/><stop offset="0.31" stop-color="#fed27e"/><stop offset="0.68" stop-color="#d2a44e"/><stop offset="0.72" stop-color="#daac56"/><stop offset="0.9" stop-color="#f3c773"/><stop offset="1" stop-color="#fdd17e"/></linearGradient><linearGradient id="linear-gradient-3" x1="180.3" y1="522.6" x2="20.4" y2="677.01" xlink:href="#linear-gradient"/><clipPath id="clip-path-2" transform="translate(-9.14 -455.39)"><text class="cls-2" transform="translate(338.44 724.98) scale(1.02 1)">OFFICE EQUIPMENTS</text></clipPath><linearGradient id="linear-gradient-4" x1="458.58" y1="424.45" x2="818.35" y2="88.96" gradientUnits="userSpaceOnUse"><stop offset="0" stop-color="#d2a44e"/><stop offset="0.13" stop-color="#d6a853"/><stop offset="0.28" stop-color="#e2b560"/><stop offset="0.43" stop-color="#f6c976"/><stop offset="0.49" stop-color="#fed27f"/><stop offset="0.58" stop-color="#ecbf6b"/><stop offset="0.7" stop-color="#ddb05b"/><stop offset="0.83" stop-color="#d5a751"/><stop offset="1" stop-color="#d2a44e"/></linearGradient></defs><g class="cls-3"><rect class="cls-4" x="314.22" y="19.6" width="661.51" height="179.01"/></g><path class="cls-5" d="M167.14,484.63s-108.74,73.18-62,124.29c22.35,24.42,22,24.23,42.1,22.87s25-8.84,25-8.84,17.34-1.75,50.86-20.08c0,0,6.44,55.16-12.67,77.38L174.54,727H292.65V484.63Z" transform="translate(-9.14 -455.39)"/><path class="cls-6" d="M143.63,484.63s-66,51.27-48.35,94.53,12.48,47.43,43.14,47.43,39.5-4.68,39.5-4.68,39-16.63,49.9-15.59-2.6,43.66-2.6,43.66-67.57,63.41-74.85,68.6A81.61,81.61,0,0,1,134.78,727h-92V484.63Z" transform="translate(-9.14 -455.39)"/><path class="cls-7" d="M267.15,484.14s-116,24.6-147.18,91.26S197.15,614,197.15,614c-80.3,53.8-116.55,5.46-116.55,5.46s-17.54-19-3.12-57.43,51.87-77.87,51.87-77.87Z" transform="translate(-9.14 -455.39)"/><path class="cls-7" d="M58.68,728s84.68-16.94,123.66-61.77c0,0,26.12-23.78,30.41-45.61s-7-40.15-83.42-17.15c0,0,74.56-52,120.84-3.9C290.32,641.27,209.93,728,209.93,728Z" transform="translate(-9.14 -455.39)"/><g class="cls-8"><rect class="cls-9" x="325.17" y="203.89" width="656.76" height="77.49"/></g><rect class="cls-10" x="1.5" y="1.5" width="1008.17" height="296.44"/></svg>