<svg id="Layer_1" data-name="Layer 1" xmlns="http://www.w3.org/2000/svg" xmlns:xlink="http://www.w3.org/1999/xlink" viewBox="0 0 1725.92 603.69"><defs><style>.cls-1{font-size:368.27px;}.cls-1,.cls-5{fill:#fff;}.cls-1,.cls-2{font-family:Impact;}.cls-2{font-size:130.29px;fill:none;letter-spacing:0.06em;}.cls-3{fill:#2e2b1d;}.cls-4{clip-path:url(#clip-path);}.cls-6{clip-path:url(#clip-path-2);}</style><clipPath id="clip-path" transform="translate(8.62 4.23)"><text class="cls-1" transform="translate(535.4 385.94)">SAHARA</text></clipPath><clipPath id="clip-path-2" transform="translate(8.62 4.23)"><text class="cls-2" transform="translate(544.23 524.54) scale(1.02 1)">OFFICE EQUIPMENTS</text></clipPath></defs><rect class="cls-3" width="1725.19" height="603.69"/><g class="cls-4"><rect class="cls-5" x="525.75" y="79.42" width="1189.01" height="321.75"/></g><path class="cls-5" d="M236.33,92.53S40.89,224.08,124.93,315.93c40.17,43.91,39.62,43.56,75.67,41.11s44.84-15.89,44.84-15.89,31.18-3.15,91.43-36.08c0,0,11.57,99.15-22.77,139.08l-64.45,84.08H461.94V92.53Z" transform="translate(8.62 4.23)"/><path class="cls-5" d="M194.09,92.53S75.42,184.68,107.18,262.45s22.42,85.24,77.54,85.24,71-8.4,71-8.4,70.07-29.9,89.69-28-4.67,78.48-4.67,78.48-121.45,114-134.53,123.31a146.92,146.92,0,0,1-28,15.18H12.82V92.53Z" transform="translate(8.62 4.23)"/><path class="cls-3" d="M416.11,91.64s-208.5,44.23-264.56,164S290.28,325,290.28,325C146,421.73,80.79,334.85,80.79,334.85s-31.53-34.1-5.61-103.23,93.23-140,93.23-140Z" transform="translate(8.62 4.23)"/><path class="cls-3" d="M41.39,530s152.2-30.46,222.27-111c0,0,46.94-42.74,54.65-82s-12.61-72.17-149.94-30.82c0,0,134-93.42,217.2-7,72.17,75-72.32,230.84-72.32,230.84Z" transform="translate(8.62 4.23)"/><g class="cls-6"><rect class="cls-5" x="545.43" y="410.68" width="1180.49" height="139.29"/></g></svg>