<svg id="Layer_1" data-name="Layer 1" xmlns="http://www.w3.org/2000/svg" xmlns:xlink="http://www.w3.org/1999/xlink" viewBox="0 0 1013.51 279.79"><defs><style>.cls-1{font-size:218.98px;}.cls-1,.cls-2{fill:none;font-family:Impact;}.cls-2{font-size:77.47px;letter-spacing:0.06em;}.cls-3{clip-path:url(#clip-path);}.cls-4{fill:url(#linear-gradient);}.cls-5{fill:url(#linear-gradient-2);}.cls-6{fill:url(#linear-gradient-3);}.cls-7{fill:#fff;}.cls-8{clip-path:url(#clip-path-2);}.cls-9{fill:url(#linear-gradient-4);}</style><clipPath id="clip-path" transform="translate(-10.52 -465.89)"><text class="cls-1" transform="translate(321.25 650.67)">SAHARA</text></clipPath><linearGradient id="linear-gradient" x1="422.65" y1="318.46" x2="848.39" y2="-92.66" gradientUnits="userSpaceOnUse"><stop offset="0" stop-color="#011d76"/><stop offset="0.18" stop-color="#01228f"/><stop offset="0.53" stop-color="#002fca"/><stop offset="1" stop-color="#2b387f"/><stop offset="1" stop-color="#021d76"/></linearGradient><linearGradient id="linear-gradient-2" x1="67.72" y1="560.87" x2="308.39" y2="634.46" gradientUnits="userSpaceOnUse"><stop offset="0" stop-color="#d2a44e"/><stop offset="0.31" stop-color="#fed27e"/><stop offset="0.68" stop-color="#d2a44e"/><stop offset="0.72" stop-color="#daac56"/><stop offset="0.9" stop-color="#f3c773"/><stop offset="1" stop-color="#fdd17e"/></linearGradient><linearGradient id="linear-gradient-3" x1="157.49" y1="516.78" x2="-13.41" y2="681.81" xlink:href="#linear-gradient"/><clipPath id="clip-path-2" transform="translate(-10.52 -465.89)"><text class="cls-2" transform="translate(326.5 733.08) scale(1.02 1)">OFFICE EQUIPMENTS</text></clipPath><linearGradient id="linear-gradient-4" x1="454.16" y1="432.7" x2="838.67" y2="74.14" gradientUnits="userSpaceOnUse"><stop offset="0" stop-color="#d2a44e"/><stop offset="0.13" stop-color="#d6a853"/><stop offset="0.28" stop-color="#e2b560"/><stop offset="0.43" stop-color="#f6c976"/><stop offset="0.49" stop-color="#fed27f"/><stop offset="0.58" stop-color="#ecbf6b"/><stop offset="0.7" stop-color="#ddb05b"/><stop offset="0.83" stop-color="#d5a751"/><stop offset="1" stop-color="#d2a44e"/></linearGradient></defs><g class="cls-3"><rect class="cls-4" x="299.87" width="707.01" height="191.32"/></g><path class="cls-5" d="M143.42,476.2S27.21,554.42,77.18,609c23.88,26.11,23.56,25.9,45,24.44S148.84,624,148.84,624s18.54-1.88,54.36-21.46c0,0,6.88,58.95-13.54,82.7l-38.32,50H277.57V476.2Z" transform="translate(-10.52 -465.89)"/><path class="cls-6" d="M118.3,476.2S47.74,531,66.62,577.24,80,627.92,112.73,627.92s42.22-5,42.22-5,41.66-17.78,53.33-16.67-2.78,46.66-2.78,46.66-72.22,67.77-80,73.33a87.57,87.57,0,0,1-16.67,9H10.52V476.2Z" transform="translate(-10.52 -465.89)"/><path class="cls-7" d="M250.32,475.67S126.34,502,93,573.21s82.49,41.24,82.49,41.24C89.68,672,50.93,620.29,50.93,620.29S32.18,600,47.6,558.91,103,475.67,103,475.67Z" transform="translate(-10.52 -465.89)"/><path class="cls-7" d="M27.51,736.3s90.5-18.11,132.16-66c0,0,27.91-25.41,32.5-48.74s-7.5-42.91-89.16-18.33c0,0,79.69-55.55,129.15-4.17,42.91,44.58-43,137.26-43,137.26Z" transform="translate(-10.52 -465.89)"/><g class="cls-8"><rect class="cls-9" x="311.57" y="196.97" width="701.93" height="82.82"/></g></svg>