<?xml version="1.0" encoding="UTF-8"?>
<svg id="Layer_1" xmlns="http://www.w3.org/2000/svg" version="1.1" xmlns:xlink="http://www.w3.org/1999/xlink" viewBox="0 0 205 65">
  <!-- Generator: Adobe Illustrator 29.3.1, SVG Export Plug-In . SVG Version: 2.1.0 Build 151)  -->
  <defs>
    <style>
      .st0 {
        fill: url(#linear-gradient2);
      }

      .st1 {
        fill: url(#linear-gradient1);
      }

      .st2 {
        fill: none;
      }

      .st3 {
        clip-path: url(#clippath-1);
      }

      .st4 {
        clip-path: url(#clippath-3);
      }

      .st5 {
        clip-path: url(#clippath-2);
      }

      .st6 {
        fill: url(#linear-gradient);
      }

      .st7 {
        clip-path: url(#clippath);
      }
    </style>
    <linearGradient id="linear-gradient" x1="17.3" y1="42.3" x2="61.3" y2="28.8" gradientTransform="translate(0 65.9) scale(1 -1)" gradientUnits="userSpaceOnUse">
      <stop offset="0" stop-color="#d2a44e"/>
      <stop offset=".1" stop-color="#e7ba64"/>
      <stop offset=".2" stop-color="#f7cb77"/>
      <stop offset=".3" stop-color="#fed27e"/>
      <stop offset=".7" stop-color="#d2a44e"/>
      <stop offset=".8" stop-color="#f3c773"/>
      <stop offset="1" stop-color="#fdd17e"/>
    </linearGradient>
    <clipPath id="clippath">
      <path class="st2" d="M84.9,16.8h-8.5v-2.6c0-1.2-.1-2-.3-2.3-.2-.3-.6-.5-1.1-.5s-1,.2-1.3.7-.4,1.1-.4,2.1.2,2.1.5,2.7c.3.6,1.2,1.3,2.6,2.2,4.1,2.4,6.7,4.4,7.7,6,1.1,1.6,1.6,4.1,1.6,7.5s-.3,4.4-.9,5.6-1.7,2.2-3.4,3c-1.7.8-3.7,1.2-5.9,1.2s-4.6-.5-6.3-1.4-2.9-2.1-3.4-3.6c-.5-1.4-.8-3.5-.8-6.1v-2.3h8.5v4.3c0,1.3.1,2.2.4,2.6.2.4.7.6,1.3.6s1.1-.2,1.4-.7c.3-.5.4-1.2.4-2.1,0-2.1-.3-3.4-.9-4.1-.6-.6-2-1.7-4.3-3.2-2.3-1.5-3.8-2.6-4.5-3.3-.7-.7-1.4-1.6-1.8-2.8-.5-1.2-.7-2.8-.7-4.6,0-2.7.3-4.7,1-5.9s1.8-2.2,3.4-2.9c1.5-.7,3.4-1.1,5.6-1.1s4.4.4,6.1,1.2,2.8,1.7,3.3,2.9c.5,1.2.8,3.2.8,6v1.4ZM104.5,6.1l5.3,35.4h-9.4l-.5-6.4h-3.3l-.6,6.4h-9.5l4.7-35.4h13.3ZM99.6,28.9c-.5-4-.9-9-1.4-14.9-.9,6.8-1.5,11.7-1.8,14.9h3.2ZM132.4,6.1v35.4h-9.2v-14.9h-2.8v14.9h-9.2V6.1h9.2v12.7h2.8V6.1h9.2ZM152.1,6.1l5.3,35.4h-9.4l-.5-6.4h-3.3l-.6,6.4h-9.5l4.7-35.4h13.3ZM147.2,28.9c-.5-4-.9-9-1.4-14.9-.9,6.8-1.5,11.7-1.8,14.9h3.2ZM158.9,6.1h6.5c4.3,0,7.3.2,8.8.5,1.5.3,2.8,1.2,3.8,2.6,1,1.4,1.5,3.6,1.5,6.6s-.3,4.6-1,5.6c-.7.9-2,1.5-4,1.7,1.8.5,3,1.1,3.7,1.8s1,1.5,1.2,2.1.2,2.4.2,5.2v9.3h-8.5v-11.8c0-1.9-.2-3.1-.4-3.5-.3-.5-1.1-.7-2.4-.7v16h-9.2V6.1ZM168.1,12.2v7.9c1,0,1.8-.1,2.2-.4.4-.3.6-1.2.6-2.8v-1.9c0-1.1-.2-1.9-.6-2.2-.4-.3-1.1-.5-2.2-.5ZM198.9,6.1l5.3,35.4h-9.4l-.5-6.4h-3.3l-.6,6.4h-9.5l4.7-35.4h13.3ZM194,28.9c-.5-4-.9-9-1.4-14.9-.9,6.8-1.5,11.7-1.8,14.9h3.2Z"/>
    </clipPath>
    <clipPath id="clippath-1">
      <rect class="st2" x="61.3" y="3.7" width="144.6" height="39.1"/>
    </clipPath>
    <linearGradient id="linear-gradient1" x1="-6.4" y1="12.1" x2="23.8" y2="50.9" gradientTransform="translate(0 65.9) scale(1 -1)" gradientUnits="userSpaceOnUse">
      <stop offset="0" stop-color="#011d76"/>
      <stop offset=".2" stop-color="#01228f"/>
      <stop offset=".5" stop-color="#002fca"/>
      <stop offset="1" stop-color="#2b387f"/>
      <stop offset="1" stop-color="#021d76"/>
    </linearGradient>
    <clipPath id="clippath-2">
      <path class="st2" d="M72.9,53.2c0,1.3,0,2.1,0,2.7s-.2,1-.6,1.4c-.3.4-.7.8-1.3,1-.5.2-1.2.3-1.9.3s-1.3-.1-1.8-.3-1-.5-1.3-1c-.3-.4-.5-.9-.6-1.4,0-.5,0-1.4,0-2.7v-2.1c0-1.3,0-2.1,0-2.7s.2-1,.6-1.4c.3-.4.7-.8,1.3-1s1.2-.3,1.9-.3,1.3.1,1.8.3c.5.2,1,.5,1.3,1,.3.4.5.9.6,1.4s0,1.4,0,2.7v2.1ZM69.6,49.1c0-.6,0-1,0-1.1,0-.2-.2-.2-.4-.2s-.3,0-.4.2c0,.1-.1.5-.1,1.2v5.8c0,.7,0,1.2,0,1.3,0,.2.2.3.4.3s.4,0,.4-.3c0-.2,0-.7,0-1.4v-5.8ZM75.1,45.8h5.6v2.5h-2.3v2.4h2.1v2.4h-2.1v5.3h-3.3v-12.5ZM82.5,45.8h5.6v2.5h-2.3v2.4h2.1v2.4h-2.1v5.3h-3.3v-12.5ZM93.2,45.8v12.5h-3.3v-12.5h3.3ZM103.3,51.3h-3.3v-2.2c0-.6,0-1-.1-1.2,0-.2-.2-.2-.5-.2s-.4,0-.5.3c0,.2-.1.6-.1,1.2v5.8c0,.6,0,1,.1,1.2,0,.2.2.3.5.3s.4,0,.5-.3.1-.6.1-1.3v-1.6h3.3v.5c0,1.3,0,2.2-.3,2.8-.2.5-.6,1-1.2,1.4s-1.4.6-2.4.6-1.8-.2-2.4-.5c-.6-.3-1-.8-1.3-1.4s-.3-1.5-.3-2.8v-3.7c0-.9,0-1.6,0-2s.3-.9.6-1.3.7-.7,1.3-1c.6-.2,1.2-.4,1.9-.4s1.8.2,2.4.6c.6.4,1.1.8,1.3,1.4.2.6.3,1.4.3,2.6v1.2ZM105.4,45.8h5.5v2.5h-2.2v2.4h2.1v2.4h-2.1v2.8h2.4v2.5h-5.8v-12.5ZM116.9,45.8h5.5v2.5h-2.2v2.4h2.1v2.4h-2.1v2.8h2.4v2.5h-5.8v-12.5ZM132.2,58.4v1.5h-2.5c-.6,0-1,0-1.3-.1-.2,0-.4-.2-.5-.4s-.1-.5-.1-1c-.8,0-1.4-.2-1.9-.6-.5-.4-.9-.8-1.1-1.4-.2-.6-.3-1.4-.3-2.5v-3.9c0-.9,0-1.5.2-1.9.1-.4.3-.9.6-1.3s.7-.7,1.2-.9c.5-.2,1.1-.3,1.7-.3s1.4.1,2,.4c.6.2,1,.6,1.3.9.3.4.5.8.6,1.2,0,.4.1,1,.1,1.8v4.1c0,1.1,0,1.9-.2,2.3s-.3.7-.6.9c-.3.2-.7.4-1.2.5,0,.3,0,.5.2.5s.3.1.7.1h1.2ZM128.9,49.1c0-.6,0-1,0-1.1,0-.2-.2-.2-.4-.2s-.3,0-.4.2c0,.1-.1.5-.1,1.2v5.8c0,.7,0,1.2,0,1.3,0,.2.2.3.4.3s.4,0,.4-.3c0-.2,0-.7,0-1.4v-5.8ZM141.9,45.8v8.4c0,.9,0,1.6,0,2,0,.4-.2.8-.6,1.2-.3.4-.7.7-1.2.9s-1.1.3-1.8.3-1.4-.1-2-.4c-.6-.2-1-.6-1.3-1-.3-.4-.5-.8-.5-1.3,0-.4,0-1.4,0-2.8v-7.4h3.3v9.4c0,.5,0,.9,0,1,0,.2.2.2.4.2s.3,0,.4-.2c0-.2,0-.6,0-1.2v-9.2h3.3ZM147.5,45.8v12.5h-3.3v-12.5h3.3ZM149.8,45.8h3.3c.9,0,1.6,0,2.1.2s.9.3,1.1.6c.2.3.4.6.5,1,0,.4.1,1,.1,1.7v1.1c0,.8,0,1.4-.3,1.7-.2.4-.5.6-.9.8-.4.2-1,.3-1.8.3h-.9v5h-3.3v-12.5ZM153.1,48v3.2c0,0,.2,0,.2,0,.3,0,.5,0,.6-.2s.2-.5.2-.9v-1c0-.4,0-.7-.2-.8s-.4-.2-.9-.2ZM169.2,45.8v12.5h-2.9v-8.5s-1.2,8.5-1.2,8.5h-2.1l-1.2-8.3v8.3h-2.9v-12.5h4.3c.1.8.3,1.6.4,2.7l.5,3.2.8-5.8h4.3ZM171.5,45.8h5.5v2.5h-2.2v2.4h2.1v2.4h-2.1v2.8h2.4v2.5h-5.8v-12.5ZM186.6,45.8v12.5h-2.9l-1.7-5.7v5.7h-2.8v-12.5h2.8l1.9,5.6v-5.6h2.8ZM195.5,45.8v2.5h-2v10h-3.3v-10h-2v-2.5h7.3ZM204.3,49.6h-3.1v-.9c0-.4,0-.7-.1-.8,0-.1-.2-.2-.4-.2s-.4,0-.5.2c-.1.2-.2.4-.2.7s0,.7.2.9c.1.2.4.5.9.8,1.5.9,2.4,1.6,2.8,2.1.4.6.6,1.4.6,2.7s-.1,1.6-.3,2c-.2.4-.6.8-1.2,1.1s-1.3.4-2.1.4-1.6-.2-2.3-.5-1-.8-1.2-1.3-.3-1.2-.3-2.2v-.8h3.1v1.5c0,.5,0,.8.1.9,0,.1.2.2.5.2s.4,0,.5-.3c.1-.2.2-.4.2-.8,0-.7-.1-1.2-.3-1.4-.2-.2-.7-.6-1.6-1.1-.8-.5-1.4-.9-1.6-1.2-.3-.2-.5-.6-.7-1-.2-.4-.3-1-.3-1.6,0-1,.1-1.7.4-2.1.2-.4.7-.8,1.2-1,.6-.2,1.2-.4,2-.4s1.6.1,2.2.4,1,.6,1.2,1,.3,1.1.3,2.1v.5Z"/>
    </clipPath>
    <clipPath id="clippath-3">
      <rect class="st2" x="63.7" y="44" width="143.6" height="16.9"/>
    </clipPath>
    <linearGradient id="linear-gradient2" x1="37.2" y1="32.9" x2="37.2" y2="32.9" gradientTransform="translate(0 65.9) scale(1 -1)" gradientUnits="userSpaceOnUse">
      <stop offset="0" stop-color="#d2a44e"/>
      <stop offset=".3" stop-color="#fed27e"/>
      <stop offset=".7" stop-color="#d2a44e"/>
      <stop offset=".7" stop-color="#daac56"/>
      <stop offset=".9" stop-color="#f3c773"/>
      <stop offset="1" stop-color="#fdd17e"/>
    </linearGradient>
  </defs>
  <path class="st6" d="M54.6,5.8v53h-17.9c1.9-2.1,16.8-19.3,8.6-27.9-10.1-10.5-26.4.9-26.4.9,12.6-3.8,17.1-2.4,18.1.5,0,0,0,.2,0,.3v.2s0,0,0,0v.2s-1.2.7-1.2.7l-.2-.2c-1.2.6-2.3,1-3.2,1.3.3-.2.5-.3.8-.5,0,0,0,0,0,0,0,0,.2-.1.3-.2,0,0-23.7,6.1-16.9-8.4,6.3-13.4,28.2-19,31.7-19.8,0,0,6.1,0,6.1,0Z"/>
  <g class="st7">
    <g class="st3">
      <image width="185" height="185" transform="translate(41 -69)" xlink:href="knkln-1.png"/>
    </g>
  </g>
  <path class="st1" d="M37.2,35.5c-.9,4.8-6.6,10-6.6,10-7.4,8.5-22.2,12.4-26.1,13.3H0V5.8h18.8c-.9,1-8.3,9.1-11.2,16.9-3.2,8.4.7,12.6.7,12.6,0,0,7.6,10.1,24.3-.4,0,0,0,0,0,0,.3-.2.5-.3.8-.5,0,0,0,0,0,0,.8-.3,1.8-.6,2.6-.9.6-.2.6-.2,0,0,.4-.1.8-.2,1.1-.3.1.8,0,1.7,0,2.6h0Z"/>
  <g class="st5">
    <g class="st4">
      <image width="161" height="161" transform="translate(55 -28)" xlink:href="knkln-2.png"/>
    </g>
  </g>
  <path class="st0" d="M37.2,33"/>
</svg>