<?xml version="1.0" encoding="UTF-8"?>
<svg id="Layer_1" xmlns="http://www.w3.org/2000/svg" version="1.1" xmlns:xlink="http://www.w3.org/1999/xlink" viewBox="0 0 205 65">
  <!-- Generator: Adobe Illustrator 29.3.1, SVG Export Plug-In . SVG Version: 2.1.0 Build 151)  -->
  <defs>
    <style>
      .st0 {
        fill: url(#linear-gradient2);
      }

      .st1 {
        font-size: 44.8px;
      }

      .st1, .st2 {
        fill: none;
        font-family: Impact, Impact;
      }

      .st3 {
        fill: url(#linear-gradient1);
      }

      .st4 {
        clip-path: url(#clippath-1);
      }

      .st2 {
        font-size: 15.8px;
        letter-spacing: 0em;
      }

      .st5 {
        fill: url(#linear-gradient4);
      }

      .st6 {
        fill: url(#linear-gradient3);
      }

      .st7 {
        fill: url(#linear-gradient);
      }

      .st8 {
        clip-path: url(#clippath);
      }
    </style>
    <linearGradient id="linear-gradient" x1="17.3" y1="42.3" x2="61.3" y2="28.8" gradientTransform="translate(0 65.9) scale(1 -1)" gradientUnits="userSpaceOnUse">
      <stop offset="0" stop-color="#d2a44e"/>
      <stop offset=".1" stop-color="#e7ba64"/>
      <stop offset=".2" stop-color="#f7cb77"/>
      <stop offset=".3" stop-color="#fed27e"/>
      <stop offset=".7" stop-color="#d2a44e"/>
      <stop offset=".8" stop-color="#f3c773"/>
      <stop offset="1" stop-color="#fdd17e"/>
    </linearGradient>
    <clipPath id="clippath">
      <text class="st1" transform="translate(63.5 41.5)"><tspan x="0" y="0">SAHARA</tspan></text>
    </clipPath>
    <linearGradient id="linear-gradient1" x1="86.4" y1="846.6" x2="173.5" y2="762.5" gradientTransform="translate(0 -777.8)" gradientUnits="userSpaceOnUse">
      <stop offset="0" stop-color="#011d76"/>
      <stop offset=".2" stop-color="#01228f"/>
      <stop offset=".5" stop-color="#002fca"/>
      <stop offset="1" stop-color="#2b387f"/>
      <stop offset="1" stop-color="#021d76"/>
    </linearGradient>
    <linearGradient id="linear-gradient2" x1="-6.4" y1="12.1" x2="23.8" y2="50.9" gradientTransform="translate(0 65.9) scale(1 -1)" gradientUnits="userSpaceOnUse">
      <stop offset="0" stop-color="#011d76"/>
      <stop offset=".2" stop-color="#01228f"/>
      <stop offset=".5" stop-color="#002fca"/>
      <stop offset="1" stop-color="#2b387f"/>
      <stop offset="1" stop-color="#021d76"/>
    </linearGradient>
    <clipPath id="clippath-1">
      <text class="st2" transform="translate(64.6 58.4) scale(1 1)"><tspan x="0" y="0">OFFICE EQUIPMENTS</tspan></text>
    </clipPath>
    <linearGradient id="linear-gradient3" x1="92.9" y1="870" x2="171.5" y2="796.6" gradientTransform="translate(0 -777.8)" gradientUnits="userSpaceOnUse">
      <stop offset="0" stop-color="#d2a44e"/>
      <stop offset=".1" stop-color="#d6a853"/>
      <stop offset=".3" stop-color="#e2b560"/>
      <stop offset=".4" stop-color="#f6c976"/>
      <stop offset=".5" stop-color="#fed27f"/>
      <stop offset=".6" stop-color="#ecbf6b"/>
      <stop offset=".7" stop-color="#ddb05b"/>
      <stop offset=".8" stop-color="#d5a751"/>
      <stop offset="1" stop-color="#d2a44e"/>
    </linearGradient>
    <linearGradient id="linear-gradient4" x1="37.2" y1="32.9" x2="37.2" y2="32.9" gradientTransform="translate(0 65.9) scale(1 -1)" gradientUnits="userSpaceOnUse">
      <stop offset="0" stop-color="#d2a44e"/>
      <stop offset=".3" stop-color="#fed27e"/>
      <stop offset=".7" stop-color="#d2a44e"/>
      <stop offset=".7" stop-color="#daac56"/>
      <stop offset=".9" stop-color="#f3c773"/>
      <stop offset="1" stop-color="#fdd17e"/>
    </linearGradient>
  </defs>
  <path class="st7" d="M54.6,5.8v53h-17.9c1.9-2.1,16.8-19.3,8.6-27.9-10.1-10.5-26.4.9-26.4.9,12.6-3.8,17.1-2.4,18.1.5,0,0,0,.2,0,.3v.2s0,0,0,0v.2s-1.2.7-1.2.7l-.2-.2c-1.2.6-2.3,1-3.2,1.3.3-.2.5-.3.8-.5,0,0,0,0,0,0,0,0,.2-.1.3-.2,0,0-23.7,6.1-16.9-8.4,6.3-13.4,28.2-19,31.7-19.8,0,0,6.1,0,6.1,0Z"/>
  <g class="st8">
    <rect class="st3" x="61.3" y="3.7" width="144.6" height="39.1"/>
  </g>
  <path class="st0" d="M37.2,35.5c-.9,4.8-6.6,10-6.6,10-7.4,8.5-22.2,12.4-26.1,13.3H0V5.8h18.8c-.9,1-8.3,9.1-11.2,16.9-3.2,8.4.7,12.6.7,12.6,0,0,7.6,10.1,24.3-.4,0,0,0,0,0,0,.3-.2.5-.3.8-.5,0,0,0,0,0,0,.8-.3,1.8-.6,2.6-.9.6-.2.6-.2,0,0,.4-.1.8-.2,1.1-.3.1.8,0,1.7,0,2.6h0Z"/>
  <g class="st4">
    <rect class="st6" x="63.7" y="44" width="143.6" height="16.9"/>
  </g>
  <path class="st5" d="M37.2,33"/>
</svg>