<?xml version="1.0" encoding="UTF-8"?>
<svg id="Layer_1" xmlns="http://www.w3.org/2000/svg" version="1.1" xmlns:xlink="http://www.w3.org/1999/xlink" viewBox="0 0 205 65">
  <!-- Generator: Adobe Illustrator 29.3.1, SVG Export Plug-In . SVG Version: 2.1.0 Build 151)  -->
  <defs>
    <style>
      .st0 {
        fill: url(#linear-gradient2);
      }

      .st1 {
        font-size: 15.84px;
        letter-spacing: .06em;
      }

      .st1, .st2, .st3, .st4 {
        fill: none;
        font-family: Impact, Impact;
      }

      .st5 {
        fill: #fff;
      }

      .st2 {
        font-size: 44.78px;
      }

      .st6 {
        fill: url(#linear-gradient1);
      }

      .st7 {
        fill: url(#linear-gradient8);
      }

      .st8 {
        clip-path: url(#clippath-1);
      }

      .st9 {
        clip-path: url(#clippath-3);
      }

      .st10 {
        fill: url(#linear-gradient7);
      }

      .st11 {
        fill: url(#linear-gradient4);
      }

      .st12 {
        fill: url(#linear-gradient5);
      }

      .st13 {
        fill: url(#linear-gradient3);
      }

      .st3 {
        font-size: 18.51px;
        letter-spacing: .06em;
      }

      .st4 {
        font-size: 52.33px;
      }

      .st14 {
        fill: url(#linear-gradient6);
      }

      .st15 {
        clip-path: url(#clippath-2);
      }

      .st16 {
        fill: url(#linear-gradient);
      }

      .st17 {
        clip-path: url(#clippath);
      }
    </style>
    <linearGradient id="linear-gradient" x1="17.31" y1="23.64" x2="61.26" y2="37.08" gradientUnits="userSpaceOnUse">
      <stop offset="0" stop-color="#d2a44e"/>
      <stop offset=".12" stop-color="#e7ba64"/>
      <stop offset=".25" stop-color="#f7cb77"/>
      <stop offset=".34" stop-color="#fed27e"/>
      <stop offset=".66" stop-color="#d2a44e"/>
      <stop offset=".85" stop-color="#f3c773"/>
      <stop offset="1" stop-color="#fdd17e"/>
    </linearGradient>
    <clipPath id="clippath">
      <text class="st2" transform="translate(63.55 41.5)"><tspan x="0" y="0">SAHARA</tspan></text>
    </clipPath>
    <linearGradient id="linear-gradient1" x1="86.44" y1="-4.73" x2="173.51" y2="79.35" gradientTransform="translate(0 64.11) scale(1 -1)" gradientUnits="userSpaceOnUse">
      <stop offset="0" stop-color="#011d76"/>
      <stop offset=".18" stop-color="#01228f"/>
      <stop offset=".53" stop-color="#002fca"/>
      <stop offset="1" stop-color="#2b387f"/>
      <stop offset="1" stop-color="#021d76"/>
    </linearGradient>
    <linearGradient id="linear-gradient2" x1="-6.45" y1="53.76" x2="23.84" y2="14.98" gradientTransform="matrix(1,0,0,1,0,0)" xlink:href="#linear-gradient1"/>
    <clipPath id="clippath-1">
      <text class="st1" transform="translate(64.62 58.36) scale(1.02 1)"><tspan x="0" y="0">OFFICE EQUIPMENTS</tspan></text>
    </clipPath>
    <linearGradient id="linear-gradient3" x1="92.88" y1="-28.09" x2="171.52" y2="45.24" gradientTransform="translate(0 64.11) scale(1 -1)" gradientUnits="userSpaceOnUse">
      <stop offset="0" stop-color="#d2a44e"/>
      <stop offset=".13" stop-color="#d6a853"/>
      <stop offset=".28" stop-color="#e2b560"/>
      <stop offset=".43" stop-color="#f6c976"/>
      <stop offset=".49" stop-color="#fed27f"/>
      <stop offset=".58" stop-color="#ecbf6b"/>
      <stop offset=".7" stop-color="#ddb05b"/>
      <stop offset=".83" stop-color="#d5a751"/>
      <stop offset="1" stop-color="#d2a44e"/>
    </linearGradient>
    <linearGradient id="linear-gradient4" x1="37.24" y1="32.99" x2="37.24" y2="32.99" gradientUnits="userSpaceOnUse">
      <stop offset="0" stop-color="#d2a44e"/>
      <stop offset=".31" stop-color="#fed27e"/>
      <stop offset=".68" stop-color="#d2a44e"/>
      <stop offset=".72" stop-color="#daac56"/>
      <stop offset=".9" stop-color="#f3c773"/>
      <stop offset="1" stop-color="#fdd17e"/>
    </linearGradient>
    <clipPath id="clippath-2">
      <text class="st4" transform="translate(63.93 129.73)"><tspan x="0" y="0">SAHARA</tspan></text>
    </clipPath>
    <linearGradient id="linear-gradient5" x1="90.68" y1="-97.57" x2="192.41" y2=".68" xlink:href="#linear-gradient1"/>
    <linearGradient id="linear-gradient6" x1="13.87" y1="-510.05" x2="71.38" y2="-527.63" gradientTransform="translate(-10.52 -401.78) scale(1 -1)" xlink:href="#linear-gradient4"/>
    <linearGradient id="linear-gradient7" x1="35.32" y1="-499.51" x2="-5.52" y2="-538.95" gradientTransform="translate(-10.52 -401.78) scale(1 -1)" xlink:href="#linear-gradient1"/>
    <clipPath id="clippath-3">
      <text class="st3" transform="translate(65.19 149.42) scale(1.02 1)"><tspan x="0" y="0">OFFICE EQUIPMENTS</tspan></text>
    </clipPath>
    <linearGradient id="linear-gradient8" x1="98.21" y1="-124.86" x2="190.09" y2="-39.18" xlink:href="#linear-gradient3"/>
  </defs>
  <path class="st16" d="M54.62,5.82v52.98h-17.89c1.92-2.14,16.82-19.32,8.6-27.85-10.12-10.51-26.41.85-26.41.85,12.62-3.8,17.11-2.44,18.15.51.04.1.07.2.1.31l.03.15v.04s.04.18.04.18l-1.23.67-.2-.18c-1.21.57-2.29,1.01-3.21,1.35.27-.17.55-.35.84-.55,0,0,.01,0,.02-.01.09-.05.19-.12.28-.18,0,0-23.69,6.13-16.87-8.43,6.26-13.37,28.17-19.01,31.69-19.84h6.06Z"/>
  <g class="st17">
    <rect class="st6" x="61.33" y="3.71" width="144.59" height="39.13"/>
  </g>
  <path class="st0" d="M37.15,35.55c-.94,4.77-6.65,9.97-6.65,9.97-7.37,8.47-22.22,12.38-26.08,13.28H0V5.82h18.81c-.94,1.01-8.28,9.06-11.23,16.92-3.15,8.4.68,12.55.68,12.55,0,0,7.58,10.1,24.32-.44,0-.01.01-.01.02-.02.27-.17.55-.35.84-.55,0,0,.01,0,.02-.01.85-.31,1.75-.63,2.63-.92t.02-.01c.38-.12.76-.24,1.13-.35.14.79.09,1.66-.09,2.56Z"/>
  <g class="st8">
    <rect class="st13" x="63.72" y="43.99" width="143.55" height="16.94"/>
  </g>
  <path class="st11" d="M37.24,32.99"/>
  <g class="st15">
    <rect class="st12" x="61.34" y="85.57" width="168.95" height="45.72"/>
  </g>
  <path class="st14" d="M21.44,88.04s-27.77,18.69-15.83,31.73c5.71,6.24,5.63,6.19,10.75,5.84,5.12-.35,6.37-2.26,6.37-2.26,0,0,4.43-.45,12.99-5.13,0,0,1.64,14.09-3.24,19.76l-9.16,11.95h30.16v-61.9H21.44Z"/>
  <path class="st10" d="M15.43,88.04S-1.43,101.13,3.08,112.18c4.51,11.05,3.2,12.11,11.02,12.11s10.09-1.19,10.09-1.19c0,0,9.96-4.25,12.74-3.98s-.66,11.15-.66,11.15c0,0-17.26,16.19-19.12,17.52-1.25.86-2.58,1.58-3.98,2.15H-10.32v-61.9H15.43Z"/>
  <path class="st5" d="M46.98,87.91s-29.63,6.29-37.59,23.31c-7.97,17.02,19.71,9.86,19.71,9.86-20.51,13.75-29.77,1.4-29.77,1.4,0,0-4.48-4.85-.8-14.67,3.68-9.82,13.24-19.89,13.24-19.89h35.2Z"/>
  <path class="st5" d="M-6.26,150.19s21.63-4.33,31.58-15.77c0,0,6.67-6.07,7.77-11.65s-1.79-10.25-21.31-4.38c0,0,19.04-13.27,30.86-1,10.25,10.65-10.28,32.8-10.28,32.8H-6.26Z"/>
  <g class="st9">
    <rect class="st7" x="64.13" y="132.64" width="167.74" height="19.79"/>
  </g>
</svg>