<?xml version="1.0" encoding="UTF-8"?>
<svg id="Layer_1" xmlns="http://www.w3.org/2000/svg" version="1.1" xmlns:xlink="http://www.w3.org/1999/xlink" viewBox="0 0 205 65">
  <!-- Generator: Adobe Illustrator 29.3.1, SVG Export Plug-In . SVG Version: 2.1.0 Build 151)  -->
  <defs>
    <style>
      .st0 {
        fill: #0126a0;
      }

      .st1 {
        fill: #002ab3;
      }

      .st2 {
        fill: #1f3594;
      }

      .st3 {
        fill: #26357e;
      }

      .st4 {
        fill: #e8bb67;
      }

      .st5 {
        fill: #0129ad;
      }

      .st6 {
        fill: #e8bb66;
      }

      .st7 {
        fill: #d7a953;
      }

      .st8 {
        fill: #1433a8;
      }

      .st9 {
        fill: #e6b963;
      }

      .st10 {
        fill: #012086;
      }

      .st11 {
        fill: #012188;
      }

      .st12 {
        fill: #002cbb;
      }

      .st13 {
        fill: #f4c774;
      }

      .st14 {
        fill: #263788;
      }

      .st15 {
        fill: #293882;
      }

      .st16 {
        fill: #273786;
      }

      .st17 {
        fill: #f7ca76;
      }

      .st18 {
        fill: #1b359b;
      }

      .st19 {
        fill: #d4a650;
      }

      .st20 {
        fill: #01259d;
      }

      .st21 {
        fill: #002bba;
      }

      .st22 {
        fill: #d5a752;
      }

      .st23 {
        fill: #0127a5;
      }

      .st24 {
        fill: #1c3599;
      }

      .st25 {
        fill: #ebbe6a;
      }

      .st26 {
        fill: #daac57;
      }

      .st27 {
        fill: #0126a1;
      }

      .st28 {
        fill: #0430c3;
      }

      .st29 {
        fill: #e8bb65;
      }

      .st30 {
        fill: #f8cb78;
      }

      .st31 {
        fill: #012392;
      }

      .st32 {
        fill: #14297a;
      }

      .st33 {
        fill: #0128ab;
      }

      .st34 {
        clip-path: url(#clippath-4);
      }

      .st35 {
        fill: #deb15b;
      }

      .st36 {
        fill: #dcaf5a;
      }

      .st37 {
        fill: #012087;
      }

      .st38 {
        fill: #1433a7;
      }

      .st39 {
        fill: #01269f;
      }

      .st40 {
        fill: #1133ad;
      }

      .st41 {
        fill: #0330c4;
      }

      .st42 {
        fill: #002ab5;
      }

      .st43 {
        fill: #0029b1;
      }

      .st44 {
        fill: #152a7a;
      }

      .st45 {
        fill: #28367e;
      }

      .st46 {
        fill: #012085;
      }

      .st47 {
        fill: #0127a4;
      }

      .st48 {
        fill: #f1c470;
      }

      .st49 {
        fill: #d7a954;
      }

      .st50 {
        fill: #f2c572;
      }

      .st51 {
        fill: #eabd69;
      }

      .st52 {
        fill: #012393;
      }

      .st53 {
        fill: #19349e;
      }

      .st54 {
        fill: #022fc6;
      }

      .st55 {
        fill: #1c3598;
      }

      .st56 {
        fill: #eabd68;
      }

      .st57 {
        fill: #d9ab56;
      }

      .st58 {
        fill: #e7ba64;
      }

      .st59 {
        fill: #efc26f;
      }

      .st60 {
        fill: #1734a2;
      }

      .st61 {
        fill: #25347e;
      }

      .st62 {
        fill: #e3b661;
      }

      .st63 {
        fill: #f1c571;
      }

      .st64 {
        fill: #1d2f7c;
      }

      .st65 {
        fill: #1634a5;
      }

      .st66 {
        fill: #ddb05a;
      }

      .st67 {
        fill: #f5c875;
      }

      .st68 {
        fill: #012499;
      }

      .st69 {
        fill: #012084;
      }

      .st70 {
        fill: #011f7e;
      }

      .st71 {
        fill: #20317d;
      }

      .st72 {
        fill: #002ab4;
      }

      .st73 {
        fill: #012083;
      }

      .st74 {
        fill: #ecbf6b;
      }

      .st75 {
        fill: #fdd17d;
      }

      .st76 {
        fill: #f7cb77;
      }

      .st77 {
        fill: #0127a6;
      }

      .st78 {
        fill: #dcaf59;
      }

      .st79 {
        fill: #daad57;
      }

      .st80 {
        fill: #102679;
      }

      .st81 {
        fill: #002bb6;
      }

      .st82 {
        fill: #011d77;
      }

      .st83 {
        fill: #fed27e;
      }

      .st84 {
        fill: #e5b864;
      }

      .st85 {
        fill: #e9bc68;
      }

      .st86 {
        fill: #002dc0;
      }

      .st87 {
        fill: #face7a;
      }

      .st88 {
        fill: #f3c673;
      }

      .st89 {
        fill: #d3a550;
      }

      .st90 {
        fill: #e6b965;
      }

      .st91 {
        fill: #002ec5;
      }

      .st92 {
        fill: #012291;
      }

      .st93 {
        fill: #002bb9;
      }

      .st94 {
        fill: #1b359a;
      }

      .st95 {
        fill: #1e2f7c;
      }

      .st96 {
        fill: #011d78;
      }

      .st97 {
        fill: #0d2478;
      }

      .st98 {
        fill: #f0c370;
      }

      .st99 {
        fill: #ecbf6a;
      }

      .st100 {
        fill: #f1c471;
      }

      .st101 {
        fill: #d8aa55;
      }

      .st102 {
        fill: #1333a9;
      }

      .st103 {
        fill: #0128aa;
      }

      .st104 {
        fill: #e6b964;
      }

      .st105 {
        fill: #12287a;
      }

      .st106 {
        fill: #face79;
      }

      .st107 {
        fill: #01249a;
      }

      .st108 {
        fill: #022fc7;
      }

      .st109 {
        fill: #f9cd7a;
      }

      .st110 {
        fill: #1333aa;
      }

      .st111 {
        fill: #172b7b;
      }

      .st112 {
        fill: none;
      }

      .st113 {
        fill: #27357e;
      }

      .st114 {
        fill: #1032ae;
      }

      .st115 {
        fill: #d2a44e;
      }

      .st116 {
        fill: #efc26e;
      }

      .st117 {
        fill: #01218c;
      }

      .st118 {
        fill: #0029ae;
      }

      .st119 {
        fill: #1233ab;
      }

      .st120 {
        fill: #f7cb78;
      }

      .st121 {
        fill: #0f32b1;
      }

      .st122 {
        fill: #f7ca77;
      }

      .st123 {
        fill: #22327d;
      }

      .st124 {
        fill: #23337d;
      }

      .st125 {
        fill: #0128a9;
      }

      .st126 {
        fill: #1834a0;
      }

      .st127 {
        fill: #253789;
      }

      .st128 {
        fill: #e5b863;
      }

      .st129 {
        fill: #1b2d7b;
      }

      .st130 {
        fill: #f5c976;
      }

      .st131 {
        fill: #002fc9;
      }

      .st132 {
        fill: #eec26e;
      }

      .st133 {
        fill: #fcd07d;
      }

      .st134 {
        clip-path: url(#clippath-1);
      }

      .st135 {
        fill: #d6a853;
      }

      .st136 {
        fill: #e9bc67;
      }

      .st137 {
        fill: #d3a54f;
      }

      .st138 {
        fill: #1a349c;
      }

      .st139 {
        fill: #011f81;
      }

      .st140 {
        fill: #002ec6;
      }

      .st141 {
        fill: #f2c672;
      }

      .st142 {
        fill: #0630bf;
      }

      .st143 {
        fill: #f8cb77;
      }

      .st144 {
        fill: #002ec7;
      }

      .st145 {
        fill: #e7ba65;
      }

      .st146 {
        fill: #0126a2;
      }

      .st147 {
        fill: #01228e;
      }

      .st148 {
        fill: #011e7d;
      }

      .st149 {
        fill: #e3b660;
      }

      .st150 {
        fill: #012290;
      }

      .st151 {
        fill: #f9cc79;
      }

      .st152 {
        fill: #0d32b3;
      }

      .st153 {
        fill: #dbae58;
      }

      .st154 {
        fill: #f0c470;
      }

      .st155 {
        fill: #e5b862;
      }

      .st156 {
        clip-path: url(#clippath-5);
      }

      .st157 {
        fill: #012fc9;
      }

      .st158 {
        fill: #e1b35e;
      }

      .st159 {
        fill: #0530c1;
      }

      .st160 {
        fill: #2a377f;
      }

      .st161 {
        fill: #0931ba;
      }

      .st162 {
        fill: #f6c975;
      }

      .st163 {
        fill: #01228f;
      }

      .st164 {
        fill: #edc06c;
      }

      .st165 {
        fill: #0029b0;
      }

      .st166 {
        fill: #012395;
      }

      .st167 {
        fill: #002dc2;
      }

      .st168 {
        fill: #072077;
      }

      .st169 {
        fill: #f6ca76;
      }

      .st170 {
        fill: #062077;
      }

      .st171 {
        fill: #0a31b8;
      }

      .st172 {
        fill: #f6ca75;
      }

      .st173 {
        fill: #f3c773;
      }

      .st174 {
        fill: #002ec4;
      }

      .st175 {
        fill: #0330c5;
      }

      .st176 {
        clip-path: url(#clippath-3);
      }

      .st177 {
        fill: #112779;
      }

      .st178 {
        fill: #182b7b;
      }

      .st179 {
        fill: #01259e;
      }

      .st180 {
        fill: #092278;
      }

      .st181 {
        fill: #e3b662;
      }

      .st182 {
        fill: #1e3595;
      }

      .st183 {
        fill: #29377f;
      }

      .st184 {
        fill: #e4b761;
      }

      .st185 {
        fill: #e7ba66;
      }

      .st186 {
        fill: #f2c571;
      }

      .st187 {
        fill: #f5c975;
      }

      .st188 {
        fill: #f7cb76;
      }

      .st189 {
        fill: #22368f;
      }

      .st190 {
        fill: #1d3597;
      }

      .st191 {
        fill: #2b387f;
      }

      .st192 {
        fill: #1a349d;
      }

      .st193 {
        fill: #002cbd;
      }

      .st194 {
        fill: #011e79;
      }

      .st195 {
        fill: #203692;
      }

      .st196 {
        fill: #0f2679;
      }

      .st197 {
        fill: #e4b763;
      }

      .st198 {
        fill: #ecbf6c;
      }

      .st199 {
        fill: #0b31b7;
      }

      .st200 {
        fill: #18349f;
      }

      .st201 {
        fill: #0831bd;
      }

      .st202 {
        fill: #002bb8;
      }

      .st203 {
        fill: #e2b55f;
      }

      .st204 {
        fill: #dcae58;
      }

      .st205 {
        fill: #012497;
      }

      .st206 {
        fill: #213691;
      }

      .st207 {
        fill: #f5c874;
      }

      .st208 {
        fill: #22368e;
      }

      .st209 {
        fill: #0a2278;
      }

      .st210 {
        fill: #051f77;
      }

      .st211 {
        fill: #2a3880;
      }

      .st212 {
        fill: #efc36f;
      }

      .st213 {
        fill: #d4a651;
      }

      .st214 {
        fill: #011d76;
      }

      .st215 {
        fill: #fed27f;
      }

      .st216 {
        fill: #d5a751;
      }

      .st217 {
        fill: #d9ab55;
      }

      .st218 {
        fill: #0831bc;
      }

      .st219 {
        fill: #283784;
      }

      .st220 {
        fill: #213690;
      }

      .st221 {
        fill: #f6c976;
      }

      .st222 {
        fill: #e0b35d;
      }

      .st223 {
        fill: #d9ac57;
      }

      .st224 {
        fill: #1f307c;
      }

      .st225 {
        fill: #0c32b5;
      }

      .st226 {
        fill: #d6a852;
      }

      .st227 {
        fill: #e1b45e;
      }

      .st228 {
        fill: #002dc1;
      }

      .st229 {
        fill: #0b2378;
      }

      .st230 {
        fill: #1c2e7c;
      }

      .st231 {
        fill: #002dbf;
      }

      .st232 {
        fill: #1032af;
      }

      .st233 {
        fill: #e1b45f;
      }

      .st234 {
        fill: #011f7f;
      }

      .st235 {
        fill: #f4c874;
      }

      .st236 {
        fill: #012189;
      }

      .st237 {
        fill: #263787;
      }

      .st238 {
        fill: #002cbc;
      }

      .st239 {
        fill: #0e32b2;
      }

      .st240 {
        fill: #fbcf7b;
      }

      .st241 {
        fill: #0931bb;
      }

      .st242 {
        fill: #0d32b4;
      }

      .st243 {
        fill: #24378b;
      }

      .st244 {
        fill: #002fc8;
      }

      .st245 {
        fill: #0730be;
      }

      .st246 {
        fill: #293883;
      }

      .st247 {
        fill: #d9ac56;
      }

      .st248 {
        fill: #edc06d;
      }

      .st249 {
        fill: #012498;
      }

      .st250 {
        fill: #002fca;
      }

      .st251 {
        fill: #f0c36f;
      }

      .st252 {
        fill: #e2b560;
      }

      .st253 {
        fill: #eec16e;
      }

      .st254 {
        fill: #012496;
      }

      .st255 {
        fill: #1533a6;
      }

      .st256 {
        fill: #1634a3;
      }

      .st257 {
        fill: #0126a3;
      }

      .st258 {
        fill: #e4b762;
      }

      .st259 {
        fill: #002ab2;
      }

      .st260 {
        fill: #d8aa54;
      }

      .st261 {
        fill: #21317d;
      }

      .st262 {
        fill: #01259b;
      }

      .st263 {
        fill: #1f3693;
      }

      .st264 {
        fill: #25378a;
      }

      .st265 {
        fill: #0029af;
      }

      .st266 {
        fill: #dbae59;
      }

      .st267 {
        fill: #0127a7;
      }

      .st268 {
        fill: #012394;
      }

      .st269 {
        clip-path: url(#clippath-2);
      }

      .st270 {
        fill: #eec16d;
      }

      .st271 {
        fill: #ddaf5a;
      }

      .st272 {
        fill: #f6ca77;
      }

      .st273 {
        fill: #011e7a;
      }

      .st274 {
        fill: #ddb05b;
      }

      .st275 {
        fill: #01218b;
      }

      .st276 {
        fill: #0e2579;
      }

      .st277 {
        fill: #0c31b6;
      }

      .st278 {
        fill: #1e3596;
      }

      .st279 {
        fill: #01218a;
      }

      .st280 {
        fill: #d8ab55;
      }

      .st281 {
        fill: #283785;
      }

      .st282 {
        fill: #192c7b;
      }

      .st283 {
        fill: #f8cc78;
      }

      .st284 {
        fill: #012fc8;
      }

      .st285 {
        fill: #daad58;
      }

      .st286 {
        fill: #fdd17e;
      }

      .st287 {
        fill: #dfb25d;
      }

      .st288 {
        fill: #fdd07c;
      }

      .st289 {
        fill: #f4c773;
      }

      .st290 {
        fill: #002dc3;
      }

      .st291 {
        fill: #deb15c;
      }

      .st292 {
        fill: #face7b;
      }

      .st293 {
        fill: #dbad58;
      }

      .st294 {
        fill: #0530c2;
      }

      .st295 {
        fill: #dfb25c;
      }

      .st296 {
        fill: #011e7c;
      }

      .st297 {
        fill: #1133ac;
      }

      .st298 {
        fill: #082177;
      }

      .st299 {
        fill: #01228d;
      }

      .st300 {
        fill: #fbcf7c;
      }

      .st301 {
        fill: #0c2478;
      }

      .st302 {
        fill: #fccf7b;
      }

      .st303 {
        fill: #fcd07c;
      }

      .st304 {
        fill: #1734a1;
      }

      .st305 {
        fill: #011f80;
      }

      .st306 {
        fill: #0128a8;
      }

      .st307 {
        fill: #24337d;
      }

      .st308 {
        clip-path: url(#clippath);
      }

      .st309 {
        fill: #0a31b9;
      }

      .st310 {
        fill: #021d76;
      }

      .st311 {
        fill: #0630c0;
      }

      .st312 {
        fill: #f9cd79;
      }

      .st313 {
        fill: #e0b35e;
      }

      .st314 {
        fill: #01259c;
      }

      .st315 {
        fill: #23368c;
      }

      .st316 {
        fill: #ebbe69;
      }

      .st317 {
        fill: #1a2d7b;
      }

      .st318 {
        fill: #041e76;
      }

      .st319 {
        fill: #011e7b;
      }

      .st320 {
        fill: #23368d;
      }

      .st321 {
        fill: #2a3881;
      }

      .st322 {
        fill: #f3c672;
      }

      .st323 {
        fill: #f8cc79;
      }

      .st324 {
        fill: #002bb7;
      }

      .st325 {
        fill: #0f32b0;
      }

      .st326 {
        fill: #13287a;
      }

      .st327 {
        fill: #002cbe;
      }

      .st328 {
        fill: #031e76;
      }
    </style>
    <clipPath id="clippath">
      <path class="st112" d="M54.62,5.82v52.98h-17.89c1.92-2.14,16.82-19.32,8.6-27.85-10.12-10.51-26.41.85-26.41.85,12.62-3.8,17.11-2.44,18.15.51.04.1.07.2.1.31l.03.15v.04s.04.18.04.18l-1.23.67-.2-.18c-1.21.57-2.29,1.01-3.21,1.35.27-.17.55-.35.84-.55,0,0,.01,0,.02-.01.09-.05.19-.12.28-.18,0,0-23.69,6.13-16.87-8.43,6.26-13.37,28.17-19.01,31.69-19.84h6.06Z"/>
    </clipPath>
    <clipPath id="clippath-1">
      <path class="st112" d="M84.89,16.81h-8.55v-2.62c0-1.22-.11-2-.33-2.34-.22-.33-.58-.5-1.09-.5-.55,0-.97.23-1.26.68-.28.45-.43,1.14-.43,2.06,0,1.18.16,2.07.48,2.67.31.6,1.17,1.32,2.6,2.16,4.1,2.43,6.68,4.43,7.74,5.99,1.06,1.56,1.6,4.07,1.6,7.54,0,2.52-.3,4.38-.89,5.58s-1.73,2.2-3.42,3.01c-1.69.81-3.66,1.21-5.9,1.21-2.46,0-4.57-.47-6.31-1.4s-2.88-2.12-3.42-3.56c-.54-1.44-.81-3.49-.81-6.15v-2.32h8.55v4.31c0,1.33.12,2.18.36,2.56.24.38.67.57,1.28.57s1.07-.24,1.37-.72c.3-.48.45-1.2.45-2.14,0-2.08-.28-3.45-.85-4.09-.58-.64-2.02-1.71-4.31-3.21-2.29-1.52-3.8-2.62-4.55-3.3-.74-.69-1.36-1.63-1.85-2.84-.49-1.21-.73-2.76-.73-4.64,0-2.71.35-4.69,1.04-5.95.69-1.25,1.81-2.23,3.36-2.94,1.54-.71,3.41-1.06,5.6-1.06,2.39,0,4.43.39,6.11,1.16,1.68.77,2.8,1.75,3.35,2.92.55,1.17.82,3.17.82,5.98v1.4ZM104.46,6.1l5.26,35.4h-9.41l-.49-6.36h-3.29l-.55,6.36h-9.52l4.7-35.4h13.31ZM99.58,28.86c-.47-4.01-.93-8.97-1.4-14.87-.94,6.78-1.53,11.74-1.77,14.87h3.17ZM132.45,6.1v35.4h-9.21v-14.87h-2.75v14.87h-9.21V6.1h9.21v12.66h2.75V6.1h9.21ZM152.06,6.1l5.26,35.4h-9.41l-.49-6.36h-3.29l-.55,6.36h-9.52l4.7-35.4h13.31ZM147.18,28.86c-.47-4.01-.93-8.97-1.4-14.87-.94,6.78-1.53,11.74-1.77,14.87h3.17ZM158.89,6.1h6.52c4.34,0,7.29.17,8.82.5s2.79,1.19,3.76,2.57,1.45,3.58,1.45,6.59c0,2.76-.34,4.61-1.03,5.55-.69.95-2.03,1.52-4.05,1.71,1.82.45,3.05,1.06,3.67,1.81s1.02,1.45,1.17,2.09c.15.63.23,2.38.23,5.24v9.34h-8.55v-11.77c0-1.9-.15-3.07-.45-3.52-.3-.45-1.08-.68-2.35-.68v15.96h-9.21V6.1ZM168.1,12.15v7.87c1.04,0,1.76-.14,2.18-.43.42-.28.62-1.21.62-2.77v-1.95c0-1.12-.2-1.86-.6-2.21-.4-.35-1.13-.52-2.2-.52ZM198.92,6.1l5.26,35.4h-9.41l-.49-6.36h-3.29l-.55,6.36h-9.52l4.7-35.4h13.31ZM194.04,28.86c-.47-4.01-.93-8.97-1.4-14.87-.94,6.78-1.53,11.74-1.77,14.87h3.17Z"/>
    </clipPath>
    <clipPath id="clippath-2">
      <rect class="st112" x="61.33" y="3.71" width="144.59" height="39.13"/>
    </clipPath>
    <clipPath id="clippath-3">
      <path class="st112" d="M37.15,35.55c-.94,4.77-6.65,9.97-6.65,9.97-7.37,8.47-22.22,12.38-26.08,13.28H0V5.82h18.81c-.94,1.01-8.28,9.06-11.23,16.92-3.15,8.4.68,12.55.68,12.55,0,0,7.58,10.1,24.32-.44,0-.01.01-.01.02-.02.27-.17.55-.35.84-.55,0,0,.01,0,.02-.01.85-.31,1.75-.63,2.63-.92t.02-.01c.38-.12.76-.24,1.13-.35.14.79.09,1.66-.09,2.56Z"/>
    </clipPath>
    <clipPath id="clippath-4">
      <path class="st112" d="M72.88,53.17c0,1.26-.03,2.15-.09,2.67-.06.52-.25,1-.57,1.44s-.75.77-1.29,1-1.17.35-1.89.35-1.3-.11-1.84-.33c-.54-.22-.98-.55-1.31-.99-.33-.44-.53-.92-.59-1.43-.06-.52-.09-1.42-.09-2.71v-2.14c0-1.26.03-2.15.09-2.67s.25-1,.57-1.43c.32-.43.75-.77,1.29-1,.54-.23,1.17-.35,1.89-.35.68,0,1.3.11,1.84.33.54.22.98.55,1.31.99s.53.92.59,1.43.09,1.42.09,2.71v2.14ZM69.55,49.05c0-.58-.03-.96-.1-1.12-.07-.16-.2-.24-.41-.24-.17,0-.31.07-.4.2-.09.13-.14.52-.14,1.16v5.85c0,.73.03,1.18.09,1.35.06.17.2.26.42.26s.37-.1.43-.29c.06-.2.09-.66.09-1.4v-5.76ZM75.08,45.83h5.63v2.51h-2.3v2.38h2.05v2.38h-2.05v5.26h-3.32v-12.52ZM82.48,45.83h5.63v2.51h-2.3v2.38h2.05v2.38h-2.05v5.26h-3.32v-12.52ZM93.21,45.83v12.52h-3.32v-12.52h3.32ZM103.27,51.29h-3.32v-2.18c0-.63-.04-1.03-.11-1.18-.07-.16-.23-.24-.47-.24-.27,0-.45.1-.52.29s-.11.6-.11,1.24v5.82c0,.61.04,1,.11,1.19.07.19.24.28.5.28s.41-.09.49-.28.11-.62.11-1.31v-1.57h3.32v.49c0,1.3-.09,2.22-.28,2.76-.19.54-.6,1.02-1.24,1.43-.64.41-1.43.61-2.36.61s-1.78-.17-2.41-.52c-.63-.35-1.05-.82-1.25-1.44s-.31-1.53-.31-2.76v-3.66c0-.9.03-1.58.09-2.03.06-.45.25-.89.56-1.3s.75-.75,1.3-.99c.56-.24,1.19-.36,1.91-.36.98,0,1.79.19,2.42.56.64.37,1.05.83,1.25,1.39.2.55.3,1.42.3,2.58v1.19ZM105.43,45.83h5.54v2.51h-2.22v2.38h2.08v2.38h-2.08v2.75h2.44v2.51h-5.76v-12.52ZM116.93,45.83h5.54v2.51h-2.22v2.38h2.08v2.38h-2.08v2.75h2.44v2.51h-5.76v-12.52ZM132.21,58.36v1.52h-2.51c-.6,0-1.03-.05-1.28-.14-.25-.09-.41-.23-.5-.41s-.13-.5-.13-.97c-.75-.02-1.4-.21-1.94-.58s-.9-.83-1.07-1.4c-.17-.56-.26-1.41-.26-2.53v-3.88c0-.85.05-1.5.15-1.95.1-.45.31-.87.64-1.26.32-.39.73-.69,1.24-.89.51-.2,1.07-.3,1.68-.3.74,0,1.4.12,1.99.37.58.25,1.01.56,1.3.94.29.38.47.78.56,1.19.09.41.13,1.02.13,1.83v4.07c0,1.11-.06,1.87-.17,2.27-.11.4-.32.71-.63.95-.31.23-.73.41-1.25.54.02.28.08.46.18.53.1.07.35.11.73.11h1.15ZM128.88,49.05c0-.58-.03-.96-.1-1.12-.07-.16-.2-.24-.41-.24-.17,0-.31.07-.4.2s-.14.52-.14,1.16v5.85c0,.73.03,1.18.09,1.35.06.17.2.26.42.26s.37-.1.43-.29c.06-.2.09-.66.09-1.4v-5.76ZM141.97,45.83v8.37c0,.95-.03,1.62-.09,2-.06.38-.25.78-.56,1.18-.31.4-.72.71-1.23.92-.51.21-1.11.31-1.79.31-.76,0-1.44-.12-2.02-.37-.58-.25-1.02-.57-1.31-.97s-.46-.82-.51-1.26c-.05-.44-.08-1.37-.08-2.78v-7.41h3.32v9.39c0,.55.03.9.09,1.05s.18.23.37.23c.21,0,.35-.08.41-.25.06-.17.09-.56.09-1.19v-9.23h3.32ZM147.54,45.83v12.52h-3.32v-12.52h3.32ZM149.85,45.83h3.35c.9,0,1.6.07,2.09.21.49.14.85.34,1.1.6.25.26.41.58.5.96s.13.95.13,1.74v1.09c0,.8-.08,1.38-.25,1.75-.17.37-.48.65-.93.84-.45.2-1.04.29-1.76.29h-.89v5.04h-3.32v-12.52ZM153.17,47.97v3.19c.09,0,.18,0,.25,0,.3,0,.52-.07.63-.22.12-.15.18-.45.18-.92v-1.03c0-.43-.07-.71-.21-.84s-.42-.19-.85-.19ZM169.18,45.83v12.52h-2.9v-8.46s-1.16,8.46-1.16,8.46h-2.06l-1.22-8.26v8.26h-2.91v-12.52h4.3c.13.75.26,1.64.39,2.66l.47,3.19.76-5.85h4.32ZM171.48,45.83h5.54v2.51h-2.22v2.38h2.08v2.38h-2.08v2.75h2.44v2.51h-5.76v-12.52ZM186.58,45.83v12.52h-2.91l-1.73-5.69v5.69h-2.78v-12.52h2.78l1.86,5.64v-5.64h2.78ZM195.58,45.83v2.51h-1.97v10.02h-3.32v-10.02h-1.96v-2.51h7.26ZM204.34,49.62h-3.08v-.93c0-.43-.04-.71-.12-.83-.08-.12-.21-.18-.39-.18-.2,0-.35.08-.45.24s-.15.4-.15.73c0,.42.06.73.17.94.11.21.42.47.94.77,1.48.86,2.41,1.57,2.79,2.12.38.55.58,1.44.58,2.67,0,.89-.11,1.55-.32,1.97-.21.42-.62.78-1.24,1.06s-1.32.43-2.13.43c-.89,0-1.65-.17-2.28-.5-.63-.33-1.04-.75-1.23-1.26s-.29-1.24-.29-2.17v-.82h3.08v1.52c0,.47.04.77.13.91s.24.2.46.2.39-.08.49-.26c.11-.17.16-.42.16-.76,0-.74-.1-1.22-.31-1.45-.21-.23-.73-.61-1.55-1.14-.83-.54-1.37-.93-1.64-1.17-.27-.24-.49-.58-.67-1.01-.18-.43-.26-.97-.26-1.64,0-.96.12-1.66.38-2.1s.65-.79,1.21-1.04c.56-.25,1.23-.38,2.02-.38.86,0,1.6.14,2.21.41s1.01.62,1.21,1.03.3,1.12.3,2.12v.5Z"/>
    </clipPath>
    <clipPath id="clippath-5">
      <rect class="st112" x="63.72" y="43.99" width="143.55" height="16.94"/>
    </clipPath>
  </defs>
  <g class="st308">
    <polygon class="st115" points="22.76 5.82 10.05 47.38 10.05 5.82 22.76 5.82"/>
    <polygon class="st115" points="23.09 5.82 10.05 48.48 10.05 47.38 22.76 5.82 23.09 5.82"/>
    <polygon class="st89" points="23.43 5.82 10.05 49.58 10.05 48.48 23.09 5.82 23.43 5.82"/>
    <polygon class="st216" points="23.77 5.82 10.05 50.69 10.05 49.58 23.43 5.82 23.77 5.82"/>
    <polygon class="st135" points="24.11 5.82 10.05 51.79 10.05 50.69 23.77 5.82 24.11 5.82"/>
    <polygon class="st260" points="24.44 5.82 10.09 52.75 10.05 52.73 10.05 51.79 24.11 5.82 24.44 5.82"/>
    <polygon class="st57" points="24.78 5.82 10.4 52.84 10.09 52.75 24.44 5.82 24.78 5.82"/>
    <polygon class="st79" points="25.12 5.82 10.71 52.94 10.4 52.84 24.78 5.82 25.12 5.82"/>
    <polygon class="st204" points="25.45 5.82 11.02 53.03 10.71 52.94 25.12 5.82 25.45 5.82"/>
    <polygon class="st271" points="25.79 5.82 11.33 53.12 11.02 53.03 25.45 5.82 25.79 5.82"/>
    <polygon class="st35" points="26.13 5.82 11.64 53.22 11.33 53.12 25.79 5.82 26.13 5.82"/>
    <polygon class="st287" points="26.47 5.82 11.94 53.31 11.64 53.22 26.13 5.82 26.47 5.82"/>
    <polygon class="st158" points="26.8 5.82 12.25 53.41 11.94 53.31 26.47 5.82 26.8 5.82"/>
    <polygon class="st203" points="27.14 5.82 12.56 53.5 12.25 53.41 26.8 5.82 27.14 5.82"/>
    <polygon class="st62" points="27.48 5.82 12.87 53.6 12.56 53.5 27.14 5.82 27.48 5.82"/>
    <polygon class="st258" points="27.82 5.82 13.18 53.69 12.87 53.6 27.48 5.82 27.82 5.82"/>
    <polygon class="st128" points="28.15 5.82 13.49 53.78 13.18 53.69 27.82 5.82 28.15 5.82"/>
    <polygon class="st58" points="28.49 5.82 13.8 53.88 13.49 53.78 28.15 5.82 28.49 5.82"/>
    <polygon class="st6" points="28.83 5.82 14.1 53.97 13.8 53.88 28.49 5.82 28.83 5.82"/>
    <polygon class="st136" points="29.16 5.82 14.41 54.07 14.1 53.97 28.83 5.82 29.16 5.82"/>
    <polygon class="st56" points="29.5 5.82 14.72 54.16 14.41 54.07 29.16 5.82 29.5 5.82"/>
    <polygon class="st316" points="29.84 5.82 15.03 54.26 14.72 54.16 29.5 5.82 29.84 5.82"/>
    <polygon class="st99" points="30.18 5.82 15.34 54.35 15.03 54.26 29.84 5.82 30.18 5.82"/>
    <polygon class="st164" points="30.51 5.82 15.65 54.44 15.34 54.35 30.18 5.82 30.51 5.82"/>
    <polygon class="st270" points="30.85 5.82 15.95 54.54 15.65 54.44 30.51 5.82 30.85 5.82"/>
    <polygon class="st116" points="31.19 5.82 16.26 54.63 15.95 54.54 30.85 5.82 31.19 5.82"/>
    <polygon class="st251" points="31.53 5.82 16.57 54.73 16.26 54.63 31.19 5.82 31.53 5.82"/>
    <polygon class="st48" points="31.86 5.82 16.88 54.82 16.57 54.73 31.53 5.82 31.86 5.82"/>
    <polygon class="st186" points="32.2 5.82 17.19 54.92 16.88 54.82 31.86 5.82 32.2 5.82"/>
    <polygon class="st322" points="32.54 5.82 17.5 55.01 17.19 54.92 32.2 5.82 32.54 5.82"/>
    <polygon class="st289" points="32.87 5.82 17.8 55.1 17.5 55.01 32.54 5.82 32.87 5.82"/>
    <polygon class="st207" points="33.21 5.82 18.11 55.2 17.8 55.1 32.87 5.82 33.21 5.82"/>
    <polygon class="st187" points="33.55 5.82 18.42 55.29 18.11 55.2 33.21 5.82 33.55 5.82"/>
    <polygon class="st172" points="33.89 5.82 18.73 55.39 18.42 55.29 33.55 5.82 33.89 5.82"/>
    <polygon class="st188" points="34.22 5.82 19.04 55.48 18.73 55.39 33.89 5.82 34.22 5.82"/>
    <polygon class="st143" points="34.56 5.82 19.35 55.58 19.04 55.48 34.22 5.82 34.56 5.82"/>
    <polygon class="st283" points="34.9 5.82 19.66 55.67 19.35 55.58 34.56 5.82 34.9 5.82"/>
    <polygon class="st312" points="35.24 5.82 19.96 55.76 19.66 55.67 34.9 5.82 35.24 5.82"/>
    <polygon class="st106" points="35.57 5.82 20.27 55.86 19.96 55.76 35.24 5.82 35.57 5.82"/>
    <polygon class="st87" points="35.91 5.82 20.58 55.95 20.27 55.86 35.57 5.82 35.91 5.82"/>
    <polygon class="st240" points="36.25 5.82 20.89 56.05 20.58 55.95 35.91 5.82 36.25 5.82"/>
    <polygon class="st302" points="36.58 5.82 21.2 56.14 20.89 56.05 36.25 5.82 36.58 5.82"/>
    <polygon class="st303" points="36.92 5.82 21.51 56.24 21.2 56.14 36.58 5.82 36.92 5.82"/>
    <polygon class="st288" points="37.26 5.82 21.81 56.33 21.51 56.24 36.92 5.82 37.26 5.82"/>
    <polygon class="st75" points="37.6 5.82 22.12 56.42 21.81 56.33 37.26 5.82 37.6 5.82"/>
    <polygon class="st75" points="37.93 5.82 22.43 56.52 22.12 56.42 37.6 5.82 37.93 5.82"/>
    <polygon class="st83" points="38.27 5.82 22.74 56.61 22.43 56.52 37.93 5.82 38.27 5.82"/>
    <polygon class="st83" points="38.61 5.82 23.05 56.71 22.74 56.61 38.27 5.82 38.61 5.82"/>
    <polygon class="st83" points="38.95 5.82 23.36 56.8 23.05 56.71 38.61 5.82 38.95 5.82"/>
    <polygon class="st83" points="39.27 5.82 23.65 56.89 23.36 56.8 38.95 5.82 39.27 5.82"/>
    <polygon class="st75" points="39.6 5.82 23.95 56.98 23.65 56.89 39.27 5.82 39.6 5.82"/>
    <polygon class="st303" points="39.92 5.82 24.25 57.08 23.95 56.98 39.6 5.82 39.92 5.82"/>
    <polygon class="st240" points="40.25 5.82 24.55 57.17 24.25 57.08 39.92 5.82 40.25 5.82"/>
    <polygon class="st87" points="40.57 5.82 24.85 57.26 24.55 57.17 40.25 5.82 40.57 5.82"/>
    <polygon class="st312" points="40.9 5.82 25.14 57.35 24.85 57.26 40.57 5.82 40.9 5.82"/>
    <polygon class="st283" points="41.23 5.82 25.44 57.44 25.14 57.35 40.9 5.82 41.23 5.82"/>
    <polygon class="st76" points="41.55 5.82 25.74 57.53 25.44 57.44 41.23 5.82 41.55 5.82"/>
    <polygon class="st17" points="41.88 5.82 26.04 57.62 25.74 57.53 41.55 5.82 41.88 5.82"/>
    <polygon class="st162" points="42.2 5.82 26.34 57.71 26.04 57.62 41.88 5.82 42.2 5.82"/>
    <polygon class="st207" points="42.53 5.82 26.63 57.8 26.34 57.71 42.2 5.82 42.53 5.82"/>
    <polygon class="st289" points="42.85 5.82 26.93 57.9 26.63 57.8 42.53 5.82 42.85 5.82"/>
    <polygon class="st322" points="43.18 5.82 27.23 57.99 26.93 57.9 42.85 5.82 43.18 5.82"/>
    <polygon class="st186" points="43.51 5.82 27.53 58.08 27.23 57.99 43.18 5.82 43.51 5.82"/>
    <polygon class="st48" points="43.83 5.82 27.82 58.17 27.53 58.08 43.51 5.82 43.83 5.82"/>
    <polygon class="st251" points="44.16 5.82 28.12 58.26 27.82 58.17 43.83 5.82 44.16 5.82"/>
    <polygon class="st116" points="44.48 5.82 28.42 58.35 28.12 58.26 44.16 5.82 44.48 5.82"/>
    <polygon class="st270" points="44.81 5.82 28.72 58.44 28.42 58.35 44.48 5.82 44.81 5.82"/>
    <polygon class="st164" points="45.13 5.82 29.02 58.53 28.72 58.44 44.81 5.82 45.13 5.82"/>
    <polygon class="st74" points="45.46 5.82 29.31 58.62 29.02 58.53 45.13 5.82 45.46 5.82"/>
    <polygon class="st25" points="45.79 5.82 29.61 58.71 29.31 58.62 45.46 5.82 45.79 5.82"/>
    <polygon class="st51" points="46.11 5.82 29.91 58.8 29.89 58.8 29.61 58.71 45.79 5.82 46.11 5.82"/>
    <polygon class="st85" points="46.44 5.82 30.24 58.8 29.91 58.8 46.11 5.82 46.44 5.82"/>
    <polygon class="st4" points="46.76 5.82 30.56 58.8 30.24 58.8 46.44 5.82 46.76 5.82"/>
    <polygon class="st29" points="47.09 5.82 30.89 58.8 30.56 58.8 46.76 5.82 47.09 5.82"/>
    <polygon class="st58" points="47.41 5.82 31.21 58.8 30.89 58.8 47.09 5.82 47.41 5.82"/>
    <polygon class="st9" points="47.74 5.82 31.54 58.8 31.21 58.8 47.41 5.82 47.74 5.82"/>
    <polygon class="st155" points="48.07 5.82 31.87 58.8 31.54 58.8 47.74 5.82 48.07 5.82"/>
    <polygon class="st184" points="48.39 5.82 32.19 58.8 31.87 58.8 48.07 5.82 48.39 5.82"/>
    <polygon class="st149" points="48.72 5.82 32.52 58.8 32.19 58.8 48.39 5.82 48.72 5.82"/>
    <polygon class="st203" points="49.04 5.82 32.84 58.8 32.52 58.8 48.72 5.82 49.04 5.82"/>
    <polygon class="st227" points="49.37 5.82 33.17 58.8 32.84 58.8 49.04 5.82 49.37 5.82"/>
    <polygon class="st222" points="49.69 5.82 33.49 58.8 33.17 58.8 49.37 5.82 49.69 5.82"/>
    <polygon class="st295" points="50.02 5.82 33.82 58.8 33.49 58.8 49.69 5.82 50.02 5.82"/>
    <polygon class="st35" points="50.35 5.82 34.15 58.8 33.82 58.8 50.02 5.82 50.35 5.82"/>
    <polygon class="st66" points="50.67 5.82 34.47 58.8 34.15 58.8 50.35 5.82 50.67 5.82"/>
    <polygon class="st78" points="51 5.82 34.8 58.8 34.47 58.8 50.67 5.82 51 5.82"/>
    <polygon class="st153" points="51.32 5.82 35.12 58.8 34.8 58.8 51 5.82 51.32 5.82"/>
    <polygon class="st79" points="51.65 5.82 35.45 58.8 35.12 58.8 51.32 5.82 51.65 5.82"/>
    <polygon class="st247" points="51.97 5.82 35.77 58.8 35.45 58.8 51.65 5.82 51.97 5.82"/>
    <polygon class="st217" points="52.3 5.82 36.1 58.8 35.77 58.8 51.97 5.82 52.3 5.82"/>
    <polygon class="st260" points="52.63 5.82 36.43 58.8 36.1 58.8 52.3 5.82 52.63 5.82"/>
    <polygon class="st7" points="52.95 5.82 36.75 58.8 36.43 58.8 52.63 5.82 52.95 5.82"/>
    <polygon class="st226" points="53.28 5.82 37.08 58.8 36.75 58.8 52.95 5.82 53.28 5.82"/>
    <polygon class="st216" points="53.6 5.82 37.4 58.8 37.08 58.8 53.28 5.82 53.6 5.82"/>
    <polygon class="st19" points="53.93 5.82 37.73 58.8 37.4 58.8 53.6 5.82 53.93 5.82"/>
    <polygon class="st137" points="54.25 5.82 38.05 58.8 37.73 58.8 53.93 5.82 54.25 5.82"/>
    <polygon class="st115" points="54.58 5.82 38.38 58.8 38.05 58.8 54.25 5.82 54.58 5.82"/>
    <polygon class="st115" points="54.62 6.47 38.62 58.8 38.38 58.8 54.58 5.82 54.62 5.82 54.62 6.47"/>
    <polygon class="st137" points="54.62 7.26 38.86 58.8 38.62 58.8 54.62 6.47 54.62 7.26"/>
    <polygon class="st19" points="54.62 8.04 39.1 58.8 38.86 58.8 54.62 7.26 54.62 8.04"/>
    <polygon class="st216" points="54.62 8.82 39.34 58.8 39.1 58.8 54.62 8.04 54.62 8.82"/>
    <polygon class="st226" points="54.62 9.6 39.58 58.8 39.34 58.8 54.62 8.82 54.62 9.6"/>
    <polygon class="st7" points="54.62 10.39 39.82 58.8 39.58 58.8 54.62 9.6 54.62 10.39"/>
    <polygon class="st260" points="54.62 11.17 40.06 58.8 39.82 58.8 54.62 10.39 54.62 11.17"/>
    <polygon class="st280" points="54.62 11.95 40.3 58.8 40.06 58.8 54.62 11.17 54.62 11.95"/>
    <polygon class="st247" points="54.62 12.73 40.53 58.8 40.3 58.8 54.62 11.95 54.62 12.73"/>
    <polygon class="st79" points="54.62 13.52 40.77 58.8 40.53 58.8 54.62 12.73 54.62 13.52"/>
    <polygon class="st153" points="54.62 14.3 41.01 58.8 40.77 58.8 54.62 13.52 54.62 14.3"/>
    <polygon class="st78" points="54.62 15.08 41.25 58.8 41.01 58.8 54.62 14.3 54.62 15.08"/>
    <polygon class="st66" points="54.62 15.87 41.49 58.8 41.25 58.8 54.62 15.08 54.62 15.87"/>
    <polygon class="st35" points="54.62 16.65 41.73 58.8 41.49 58.8 54.62 15.87 54.62 16.65"/>
    <polygon class="st295" points="54.62 17.43 41.97 58.8 41.73 58.8 54.62 16.65 54.62 17.43"/>
    <polygon class="st222" points="54.62 18.21 42.21 58.8 41.97 58.8 54.62 17.43 54.62 18.21"/>
    <polygon class="st227" points="54.62 19 42.45 58.8 42.21 58.8 54.62 18.21 54.62 19"/>
    <polygon class="st203" points="54.62 19.78 42.69 58.8 42.45 58.8 54.62 19 54.62 19.78"/>
    <polygon class="st62" points="54.62 20.56 42.93 58.8 42.69 58.8 54.62 19.78 54.62 20.56"/>
    <polygon class="st181" points="54.62 21.34 43.17 58.8 42.93 58.8 54.62 20.56 54.62 21.34"/>
    <polygon class="st197" points="54.62 22.13 43.41 58.8 43.17 58.8 54.62 21.34 54.62 22.13"/>
    <polygon class="st84" points="54.62 22.91 43.65 58.8 43.41 58.8 54.62 22.13 54.62 22.91"/>
    <polygon class="st90" points="54.62 23.69 43.89 58.8 43.65 58.8 54.62 22.91 54.62 23.69"/>
    <polygon class="st185" points="54.62 24.48 44.12 58.8 43.89 58.8 54.62 23.69 54.62 24.48"/>
    <polygon class="st4" points="54.62 25.26 44.36 58.8 44.12 58.8 54.62 24.48 54.62 25.26"/>
    <polygon class="st85" points="54.62 26.04 44.6 58.8 44.36 58.8 54.62 25.26 54.62 26.04"/>
    <polygon class="st51" points="54.62 26.82 44.84 58.8 44.6 58.8 54.62 26.04 54.62 26.82"/>
    <polygon class="st25" points="54.62 27.61 45.08 58.8 44.84 58.8 54.62 26.82 54.62 27.61"/>
    <polygon class="st74" points="54.62 28.39 45.32 58.8 45.08 58.8 54.62 27.61 54.62 28.39"/>
    <polygon class="st164" points="54.62 29.17 45.56 58.8 45.32 58.8 54.62 28.39 54.62 29.17"/>
    <polygon class="st270" points="54.62 29.95 45.8 58.8 45.56 58.8 54.62 29.17 54.62 29.95"/>
    <polygon class="st132" points="54.62 30.74 46.04 58.8 45.8 58.8 54.62 29.95 54.62 30.74"/>
    <polygon class="st212" points="54.62 31.52 46.28 58.8 46.04 58.8 54.62 30.74 54.62 31.52"/>
    <polygon class="st154" points="54.62 32.3 46.52 58.8 46.28 58.8 54.62 31.52 54.62 32.3"/>
    <polygon class="st63" points="54.62 33.09 46.76 58.8 46.52 58.8 54.62 32.3 54.62 33.09"/>
    <polygon class="st141" points="54.62 33.87 47 58.8 46.76 58.8 54.62 33.09 54.62 33.87"/>
    <polygon class="st173" points="54.62 34.65 47.24 58.8 47 58.8 54.62 33.87 54.62 34.65"/>
    <polygon class="st173" points="54.62 36.85 47.91 58.8 47.24 58.8 54.62 34.65 54.62 36.85"/>
    <polygon class="st235" points="54.62 39.04 48.58 58.8 47.91 58.8 54.62 36.85 54.62 39.04"/>
    <polygon class="st187" points="54.62 41.24 49.25 58.8 48.58 58.8 54.62 39.04 54.62 41.24"/>
    <polygon class="st169" points="54.62 43.43 49.92 58.8 49.25 58.8 54.62 41.24 54.62 43.43"/>
    <polygon class="st76" points="54.62 45.63 50.59 58.8 49.92 58.8 54.62 43.43 54.62 45.63"/>
    <polygon class="st323" points="54.62 47.82 51.26 58.8 50.59 58.8 54.62 45.63 54.62 47.82"/>
    <polygon class="st109" points="54.62 50.02 51.93 58.8 51.26 58.8 54.62 47.82 54.62 50.02"/>
    <polygon class="st292" points="54.62 52.21 52.61 58.8 51.93 58.8 54.62 50.02 54.62 52.21"/>
    <polygon class="st300" points="54.62 54.41 53.28 58.8 52.61 58.8 54.62 52.21 54.62 54.41"/>
    <polygon class="st133" points="54.62 56.6 53.95 58.8 53.28 58.8 54.62 54.41 54.62 56.6"/>
    <polygon class="st286" points="54.62 58.8 54.62 58.8 53.95 58.8 54.62 56.6 54.62 58.8"/>
  </g>
  <g class="st134">
    <g class="st269">
      <polygon class="st214" points="61.33 41.58 62.54 42.84 61.33 42.84 61.33 41.58"/>
      <polygon class="st82" points="61.33 40.33 63.75 42.84 62.54 42.84 61.33 41.58 61.33 40.33"/>
      <polygon class="st96" points="61.33 39.08 64.96 42.84 63.75 42.84 61.33 40.33 61.33 39.08"/>
      <polygon class="st194" points="61.33 37.82 66.17 42.84 64.96 42.84 61.33 39.08 61.33 37.82"/>
      <polygon class="st273" points="61.33 36.57 67.38 42.84 66.17 42.84 61.33 37.82 61.33 36.57"/>
      <polygon class="st319" points="61.33 35.31 68.6 42.84 67.38 42.84 61.33 36.57 61.33 35.31"/>
      <polygon class="st296" points="61.33 34.06 69.81 42.84 68.6 42.84 61.33 35.31 61.33 34.06"/>
      <polygon class="st148" points="61.33 32.8 71.02 42.84 69.81 42.84 61.33 34.06 61.33 32.8"/>
      <polygon class="st70" points="61.33 31.55 72.23 42.84 71.02 42.84 61.33 32.8 61.33 31.55"/>
      <polygon class="st234" points="61.33 30.29 73.44 42.84 72.23 42.84 61.33 31.55 61.33 30.29"/>
      <polygon class="st305" points="61.33 29.04 74.65 42.84 73.44 42.84 61.33 30.29 61.33 29.04"/>
      <polygon class="st139" points="61.33 27.78 75.87 42.84 74.65 42.84 61.33 29.04 61.33 27.78"/>
      <polygon class="st73" points="61.33 26.53 77.08 42.84 75.87 42.84 61.33 27.78 61.33 26.53"/>
      <polygon class="st69" points="61.33 25.28 78.29 42.84 77.08 42.84 61.33 26.53 61.33 25.28"/>
      <polygon class="st46" points="61.33 24.02 79.5 42.84 78.29 42.84 61.33 25.28 61.33 24.02"/>
      <polygon class="st10" points="61.33 22.77 80.71 42.84 79.5 42.84 61.33 24.02 61.33 22.77"/>
      <polygon class="st37" points="61.33 21.51 81.92 42.84 80.71 42.84 61.33 22.77 61.33 21.51"/>
      <polygon class="st11" points="61.33 20.26 83.13 42.84 81.92 42.84 61.33 21.51 61.33 20.26"/>
      <polygon class="st236" points="61.33 19 84.35 42.84 83.13 42.84 61.33 20.26 61.33 19"/>
      <polygon class="st279" points="61.33 17.75 85.56 42.84 84.35 42.84 61.33 19 61.33 17.75"/>
      <polygon class="st275" points="61.33 16.49 86.77 42.84 85.56 42.84 61.33 17.75 61.33 16.49"/>
      <polygon class="st117" points="61.33 15.24 87.98 42.84 86.77 42.84 61.33 16.49 61.33 15.24"/>
      <polygon class="st299" points="61.33 13.98 89.19 42.84 87.98 42.84 61.33 15.24 61.33 13.98"/>
      <polygon class="st147" points="61.33 12.73 90.4 42.84 89.19 42.84 61.33 13.98 61.33 12.73"/>
      <polygon class="st163" points="61.33 11.48 91.61 42.84 90.4 42.84 61.33 12.73 61.33 11.48"/>
      <polygon class="st163" points="61.33 10.44 92.61 42.84 91.61 42.84 61.33 11.48 61.33 10.44"/>
      <polygon class="st150" points="61.33 9.41 93.61 42.84 92.61 42.84 61.33 10.44 61.33 9.41"/>
      <polygon class="st92" points="61.33 8.37 94.61 42.84 93.61 42.84 61.33 9.41 61.33 8.37"/>
      <polygon class="st31" points="61.33 7.34 95.61 42.84 94.61 42.84 61.33 8.37 61.33 7.34"/>
      <polygon class="st52" points="61.33 6.31 96.6 42.84 95.61 42.84 61.33 7.34 61.33 6.31"/>
      <polygon class="st268" points="61.33 5.27 97.6 42.84 96.6 42.84 61.33 6.31 61.33 5.27"/>
      <polygon class="st166" points="61.33 4.24 98.6 42.84 97.6 42.84 61.33 5.27 61.33 4.24"/>
      <polygon class="st254" points="61.82 3.71 99.6 42.84 98.6 42.84 61.33 4.24 61.33 3.71 61.82 3.71"/>
      <polygon class="st205" points="62.81 3.71 100.6 42.84 99.6 42.84 61.82 3.71 62.81 3.71"/>
      <polygon class="st249" points="63.81 3.71 101.6 42.84 100.6 42.84 62.81 3.71 63.81 3.71"/>
      <polygon class="st68" points="64.81 3.71 102.59 42.84 101.6 42.84 63.81 3.71 64.81 3.71"/>
      <polygon class="st107" points="65.81 3.71 103.59 42.84 102.59 42.84 64.81 3.71 65.81 3.71"/>
      <polygon class="st262" points="66.81 3.71 104.59 42.84 103.59 42.84 65.81 3.71 66.81 3.71"/>
      <polygon class="st314" points="67.8 3.71 105.59 42.84 104.59 42.84 66.81 3.71 67.8 3.71"/>
      <polygon class="st20" points="68.8 3.71 106.59 42.84 105.59 42.84 67.8 3.71 68.8 3.71"/>
      <polygon class="st179" points="69.8 3.71 107.58 42.84 106.59 42.84 68.8 3.71 69.8 3.71"/>
      <polygon class="st39" points="70.8 3.71 108.58 42.84 107.58 42.84 69.8 3.71 70.8 3.71"/>
      <polygon class="st0" points="71.8 3.71 109.58 42.84 108.58 42.84 70.8 3.71 71.8 3.71"/>
      <polygon class="st27" points="72.8 3.71 110.58 42.84 109.58 42.84 71.8 3.71 72.8 3.71"/>
      <polygon class="st146" points="73.79 3.71 111.58 42.84 110.58 42.84 72.8 3.71 73.79 3.71"/>
      <polygon class="st257" points="74.79 3.71 112.58 42.84 111.58 42.84 73.79 3.71 74.79 3.71"/>
      <polygon class="st47" points="75.79 3.71 113.57 42.84 112.58 42.84 74.79 3.71 75.79 3.71"/>
      <polygon class="st23" points="76.79 3.71 114.57 42.84 113.57 42.84 75.79 3.71 76.79 3.71"/>
      <polygon class="st77" points="77.79 3.71 115.57 42.84 114.57 42.84 76.79 3.71 77.79 3.71"/>
      <polygon class="st267" points="78.78 3.71 116.57 42.84 115.57 42.84 77.79 3.71 78.78 3.71"/>
      <polygon class="st306" points="79.78 3.71 117.57 42.84 116.57 42.84 78.78 3.71 79.78 3.71"/>
      <polygon class="st125" points="80.78 3.71 118.56 42.84 117.57 42.84 79.78 3.71 80.78 3.71"/>
      <polygon class="st103" points="81.78 3.71 119.56 42.84 118.56 42.84 80.78 3.71 81.78 3.71"/>
      <polygon class="st33" points="82.78 3.71 120.56 42.84 119.56 42.84 81.78 3.71 82.78 3.71"/>
      <polygon class="st5" points="83.78 3.71 121.56 42.84 120.56 42.84 82.78 3.71 83.78 3.71"/>
      <polygon class="st118" points="84.77 3.71 122.56 42.84 121.56 42.84 83.78 3.71 84.77 3.71"/>
      <polygon class="st265" points="85.77 3.71 123.56 42.84 122.56 42.84 84.77 3.71 85.77 3.71"/>
      <polygon class="st165" points="86.77 3.71 124.55 42.84 123.56 42.84 85.77 3.71 86.77 3.71"/>
      <polygon class="st43" points="87.77 3.71 125.55 42.84 124.55 42.84 86.77 3.71 87.77 3.71"/>
      <polygon class="st259" points="88.77 3.71 126.55 42.84 125.55 42.84 87.77 3.71 88.77 3.71"/>
      <polygon class="st1" points="89.76 3.71 127.55 42.84 126.55 42.84 88.77 3.71 89.76 3.71"/>
      <polygon class="st72" points="90.76 3.71 128.55 42.84 127.55 42.84 89.76 3.71 90.76 3.71"/>
      <polygon class="st42" points="91.76 3.71 129.54 42.84 128.55 42.84 90.76 3.71 91.76 3.71"/>
      <polygon class="st81" points="92.76 3.71 130.54 42.84 129.54 42.84 91.76 3.71 92.76 3.71"/>
      <polygon class="st324" points="93.76 3.71 131.54 42.84 130.54 42.84 92.76 3.71 93.76 3.71"/>
      <polygon class="st202" points="94.75 3.71 132.54 42.84 131.54 42.84 93.76 3.71 94.75 3.71"/>
      <polygon class="st93" points="95.75 3.71 133.54 42.84 132.54 42.84 94.75 3.71 95.75 3.71"/>
      <polygon class="st21" points="96.75 3.71 134.53 42.84 133.54 42.84 95.75 3.71 96.75 3.71"/>
      <polygon class="st12" points="97.75 3.71 135.53 42.84 134.53 42.84 96.75 3.71 97.75 3.71"/>
      <polygon class="st238" points="98.75 3.71 136.53 42.84 135.53 42.84 97.75 3.71 98.75 3.71"/>
      <polygon class="st193" points="99.75 3.71 137.53 42.84 136.53 42.84 98.75 3.71 99.75 3.71"/>
      <polygon class="st327" points="100.74 3.71 138.53 42.84 137.53 42.84 99.75 3.71 100.74 3.71"/>
      <polygon class="st231" points="101.74 3.71 139.53 42.84 138.53 42.84 100.74 3.71 101.74 3.71"/>
      <polygon class="st86" points="102.74 3.71 140.52 42.84 139.53 42.84 101.74 3.71 102.74 3.71"/>
      <polygon class="st228" points="103.74 3.71 141.52 42.84 140.52 42.84 102.74 3.71 103.74 3.71"/>
      <polygon class="st167" points="104.74 3.71 142.52 42.84 141.52 42.84 103.74 3.71 104.74 3.71"/>
      <polygon class="st290" points="105.73 3.71 143.52 42.84 142.52 42.84 104.74 3.71 105.73 3.71"/>
      <polygon class="st174" points="106.73 3.71 144.52 42.84 143.52 42.84 105.73 3.71 106.73 3.71"/>
      <polygon class="st91" points="107.73 3.71 145.51 42.84 144.52 42.84 106.73 3.71 107.73 3.71"/>
      <polygon class="st140" points="108.73 3.71 146.51 42.84 145.51 42.84 107.73 3.71 108.73 3.71"/>
      <polygon class="st144" points="109.73 3.71 147.51 42.84 146.51 42.84 108.73 3.71 109.73 3.71"/>
      <polygon class="st244" points="110.73 3.71 148.51 42.84 147.51 42.84 109.73 3.71 110.73 3.71"/>
      <polygon class="st131" points="111.72 3.71 149.51 42.84 148.51 42.84 110.73 3.71 111.72 3.71"/>
      <polygon class="st250" points="112.72 3.71 150.51 42.84 149.51 42.84 111.72 3.71 112.72 3.71"/>
      <polygon class="st250" points="113.78 3.71 151.56 42.84 150.51 42.84 112.72 3.71 113.78 3.71"/>
      <polygon class="st157" points="114.83 3.71 152.61 42.84 151.56 42.84 113.78 3.71 114.83 3.71"/>
      <polygon class="st284" points="115.88 3.71 153.67 42.84 152.61 42.84 114.83 3.71 115.88 3.71"/>
      <polygon class="st108" points="116.94 3.71 154.72 42.84 153.67 42.84 115.88 3.71 116.94 3.71"/>
      <polygon class="st54" points="117.99 3.71 155.78 42.84 154.72 42.84 116.94 3.71 117.99 3.71"/>
      <polygon class="st175" points="119.05 3.71 156.83 42.84 155.78 42.84 117.99 3.71 119.05 3.71"/>
      <polygon class="st41" points="120.1 3.71 157.89 42.84 156.83 42.84 119.05 3.71 120.1 3.71"/>
      <polygon class="st28" points="121.16 3.71 158.94 42.84 157.89 42.84 120.1 3.71 121.16 3.71"/>
      <polygon class="st294" points="122.21 3.71 160 42.84 158.94 42.84 121.16 3.71 122.21 3.71"/>
      <polygon class="st159" points="123.27 3.71 161.05 42.84 160 42.84 122.21 3.71 123.27 3.71"/>
      <polygon class="st311" points="124.32 3.71 162.1 42.84 161.05 42.84 123.27 3.71 124.32 3.71"/>
      <polygon class="st142" points="125.37 3.71 163.16 42.84 162.1 42.84 124.32 3.71 125.37 3.71"/>
      <polygon class="st245" points="126.43 3.71 164.21 42.84 163.16 42.84 125.37 3.71 126.43 3.71"/>
      <polygon class="st201" points="127.48 3.71 165.27 42.84 164.21 42.84 126.43 3.71 127.48 3.71"/>
      <polygon class="st218" points="128.54 3.71 166.32 42.84 165.27 42.84 127.48 3.71 128.54 3.71"/>
      <polygon class="st241" points="129.59 3.71 167.38 42.84 166.32 42.84 128.54 3.71 129.59 3.71"/>
      <polygon class="st161" points="130.65 3.71 168.43 42.84 167.38 42.84 129.59 3.71 130.65 3.71"/>
      <polygon class="st309" points="131.7 3.71 169.48 42.84 168.43 42.84 130.65 3.71 131.7 3.71"/>
      <polygon class="st171" points="132.76 3.71 170.54 42.84 169.48 42.84 131.7 3.71 132.76 3.71"/>
      <polygon class="st199" points="133.81 3.71 171.59 42.84 170.54 42.84 132.76 3.71 133.81 3.71"/>
      <polygon class="st277" points="134.86 3.71 172.65 42.84 171.59 42.84 133.81 3.71 134.86 3.71"/>
      <polygon class="st225" points="135.92 3.71 173.7 42.84 172.65 42.84 134.86 3.71 135.92 3.71"/>
      <polygon class="st242" points="136.97 3.71 174.76 42.84 173.7 42.84 135.92 3.71 136.97 3.71"/>
      <polygon class="st152" points="138.03 3.71 175.81 42.84 174.76 42.84 136.97 3.71 138.03 3.71"/>
      <polygon class="st239" points="139.08 3.71 176.87 42.84 175.81 42.84 138.03 3.71 139.08 3.71"/>
      <polygon class="st121" points="140.14 3.71 177.92 42.84 176.87 42.84 139.08 3.71 140.14 3.71"/>
      <polygon class="st325" points="141.19 3.71 178.97 42.84 177.92 42.84 140.14 3.71 141.19 3.71"/>
      <polygon class="st232" points="142.25 3.71 180.03 42.84 178.97 42.84 141.19 3.71 142.25 3.71"/>
      <polygon class="st114" points="143.3 3.71 181.08 42.84 180.03 42.84 142.25 3.71 143.3 3.71"/>
      <polygon class="st40" points="144.35 3.71 182.14 42.84 181.08 42.84 143.3 3.71 144.35 3.71"/>
      <polygon class="st297" points="145.41 3.71 183.19 42.84 182.14 42.84 144.35 3.71 145.41 3.71"/>
      <polygon class="st119" points="146.46 3.71 184.25 42.84 183.19 42.84 145.41 3.71 146.46 3.71"/>
      <polygon class="st110" points="147.52 3.71 185.3 42.84 184.25 42.84 146.46 3.71 147.52 3.71"/>
      <polygon class="st102" points="148.57 3.71 186.36 42.84 185.3 42.84 147.52 3.71 148.57 3.71"/>
      <polygon class="st8" points="149.63 3.71 187.41 42.84 186.36 42.84 148.57 3.71 149.63 3.71"/>
      <polygon class="st38" points="150.68 3.71 188.46 42.84 187.41 42.84 149.63 3.71 150.68 3.71"/>
      <polygon class="st255" points="151.74 3.71 189.52 42.84 188.46 42.84 150.68 3.71 151.74 3.71"/>
      <polygon class="st65" points="152.79 3.71 190.57 42.84 189.52 42.84 151.74 3.71 152.79 3.71"/>
      <polygon class="st256" points="153.84 3.71 191.63 42.84 190.57 42.84 152.79 3.71 153.84 3.71"/>
      <polygon class="st60" points="154.9 3.71 192.68 42.84 191.63 42.84 153.84 3.71 154.9 3.71"/>
      <polygon class="st304" points="155.95 3.71 193.74 42.84 192.68 42.84 154.9 3.71 155.95 3.71"/>
      <polygon class="st126" points="157.01 3.71 194.79 42.84 193.74 42.84 155.95 3.71 157.01 3.71"/>
      <polygon class="st200" points="158.06 3.71 195.85 42.84 194.79 42.84 157.01 3.71 158.06 3.71"/>
      <polygon class="st53" points="159.12 3.71 196.9 42.84 195.85 42.84 158.06 3.71 159.12 3.71"/>
      <polygon class="st192" points="160.17 3.71 197.95 42.84 196.9 42.84 159.12 3.71 160.17 3.71"/>
      <polygon class="st138" points="161.23 3.71 199.01 42.84 197.95 42.84 160.17 3.71 161.23 3.71"/>
      <polygon class="st18" points="162.28 3.71 200.06 42.84 199.01 42.84 161.23 3.71 162.28 3.71"/>
      <polygon class="st94" points="163.33 3.71 201.12 42.84 200.06 42.84 162.28 3.71 163.33 3.71"/>
      <polygon class="st24" points="164.39 3.71 202.17 42.84 201.12 42.84 163.33 3.71 164.39 3.71"/>
      <polygon class="st55" points="165.44 3.71 203.23 42.84 202.17 42.84 164.39 3.71 165.44 3.71"/>
      <polygon class="st190" points="166.5 3.71 204.28 42.84 203.23 42.84 165.44 3.71 166.5 3.71"/>
      <polygon class="st278" points="167.55 3.71 205.34 42.84 204.28 42.84 166.5 3.71 167.55 3.71"/>
      <polygon class="st182" points="168.61 3.71 205.92 42.35 205.92 42.84 205.34 42.84 167.55 3.71 168.61 3.71"/>
      <polygon class="st2" points="169.66 3.71 205.92 41.26 205.92 42.35 168.61 3.71 169.66 3.71"/>
      <polygon class="st263" points="170.72 3.71 205.92 40.17 205.92 41.26 169.66 3.71 170.72 3.71"/>
      <polygon class="st195" points="171.77 3.71 205.92 39.08 205.92 40.17 170.72 3.71 171.77 3.71"/>
      <polygon class="st206" points="172.82 3.71 205.92 37.98 205.92 39.08 171.77 3.71 172.82 3.71"/>
      <polygon class="st220" points="173.88 3.71 205.92 36.89 205.92 37.98 172.82 3.71 173.88 3.71"/>
      <polygon class="st189" points="174.93 3.71 205.92 35.8 205.92 36.89 173.88 3.71 174.93 3.71"/>
      <polygon class="st208" points="175.99 3.71 205.92 34.71 205.92 35.8 174.93 3.71 175.99 3.71"/>
      <polygon class="st320" points="177.04 3.71 205.92 33.62 205.92 34.71 175.99 3.71 177.04 3.71"/>
      <polygon class="st315" points="178.1 3.71 205.92 32.52 205.92 33.62 177.04 3.71 178.1 3.71"/>
      <polygon class="st243" points="179.15 3.71 205.92 31.43 205.92 32.52 178.1 3.71 179.15 3.71"/>
      <polygon class="st264" points="180.21 3.71 205.92 30.34 205.92 31.43 179.15 3.71 180.21 3.71"/>
      <polygon class="st127" points="181.26 3.71 205.92 29.25 205.92 30.34 180.21 3.71 181.26 3.71"/>
      <polygon class="st14" points="182.31 3.71 205.92 28.16 205.92 29.25 181.26 3.71 182.31 3.71"/>
      <polygon class="st237" points="183.37 3.71 205.92 27.06 205.92 28.16 182.31 3.71 183.37 3.71"/>
      <polygon class="st16" points="184.42 3.71 205.92 25.97 205.92 27.06 183.37 3.71 184.42 3.71"/>
      <polygon class="st281" points="185.48 3.71 205.92 24.88 205.92 25.97 184.42 3.71 185.48 3.71"/>
      <polygon class="st219" points="186.53 3.71 205.92 23.79 205.92 24.88 185.48 3.71 186.53 3.71"/>
      <polygon class="st246" points="187.59 3.71 205.92 22.7 205.92 23.79 186.53 3.71 187.59 3.71"/>
      <polygon class="st15" points="188.64 3.71 205.92 21.6 205.92 22.7 187.59 3.71 188.64 3.71"/>
      <polygon class="st321" points="189.7 3.71 205.92 20.51 205.92 21.6 188.64 3.71 189.7 3.71"/>
      <polygon class="st211" points="190.75 3.71 205.92 19.42 205.92 20.51 189.7 3.71 190.75 3.71"/>
      <polygon class="st191" points="191.8 3.71 205.92 18.33 205.92 19.42 190.75 3.71 191.8 3.71"/>
      <rect class="st191" x="198.86" y=".86" height="20.32" transform="translate(48.16 141.23) rotate(-44)"/>
      <rect class="st160" x="198.86" y=".86" height="20.32" transform="translate(48.16 141.23) rotate(-44)"/>
      <rect class="st183" x="198.86" y=".86" height="20.32" transform="translate(48.16 141.23) rotate(-44)"/>
      <rect class="st45" x="198.86" y=".86" height="20.32" transform="translate(48.16 141.23) rotate(-44)"/>
      <rect class="st113" x="198.86" y=".86" height="20.32" transform="translate(48.16 141.23) rotate(-44)"/>
      <rect class="st3" x="198.86" y=".86" height="20.32" transform="translate(48.16 141.23) rotate(-44)"/>
      <rect class="st61" x="198.86" y=".86" height="20.32" transform="translate(48.16 141.23) rotate(-44)"/>
      <rect class="st307" x="198.86" y=".86" height="20.32" transform="translate(48.16 141.23) rotate(-44)"/>
      <rect class="st124" x="198.86" y=".86" height="20.32" transform="translate(48.16 141.23) rotate(-44)"/>
      <rect class="st123" x="198.86" y=".86" height="20.32" transform="translate(48.16 141.23) rotate(-44)"/>
      <rect class="st261" x="198.86" y=".86" height="20.32" transform="translate(48.16 141.23) rotate(-44)"/>
      <rect class="st71" x="198.86" y=".86" height="20.32" transform="translate(48.16 141.23) rotate(-44)"/>
      <rect class="st224" x="198.86" y=".86" height="20.32" transform="translate(48.16 141.23) rotate(-44)"/>
      <rect class="st95" x="198.86" y=".86" height="20.32" transform="translate(48.16 141.23) rotate(-44)"/>
      <rect class="st64" x="198.86" y=".86" height="20.32" transform="translate(48.16 141.23) rotate(-44)"/>
      <rect class="st230" x="198.86" y=".86" height="20.32" transform="translate(48.16 141.23) rotate(-44)"/>
      <rect class="st129" x="198.86" y=".86" height="20.32" transform="translate(48.16 141.23) rotate(-44)"/>
      <rect class="st317" x="198.86" y=".86" height="20.32" transform="translate(48.16 141.23) rotate(-44)"/>
      <rect class="st282" x="198.86" y=".86" height="20.32" transform="translate(48.16 141.23) rotate(-44)"/>
      <rect class="st178" x="198.86" y=".86" height="20.32" transform="translate(48.16 141.23) rotate(-44)"/>
      <rect class="st111" x="198.86" y=".86" height="20.32" transform="translate(48.16 141.23) rotate(-44)"/>
      <rect class="st44" x="198.86" y=".86" height="20.32" transform="translate(48.16 141.23) rotate(-44)"/>
      <rect class="st32" x="198.86" y=".86" height="20.32" transform="translate(48.16 141.23) rotate(-44)"/>
      <rect class="st326" x="198.86" y=".86" height="20.32" transform="translate(48.16 141.23) rotate(-44)"/>
      <rect class="st105" x="198.86" y=".86" height="20.32" transform="translate(48.16 141.23) rotate(-44)"/>
      <rect class="st177" x="198.86" y=".86" height="20.32" transform="translate(48.16 141.23) rotate(-44)"/>
      <rect class="st80" x="198.86" y=".86" height="20.32" transform="translate(48.16 141.23) rotate(-44)"/>
      <rect class="st196" x="198.86" y=".86" height="20.32" transform="translate(48.16 141.23) rotate(-44)"/>
      <rect class="st276" x="198.86" y=".86" height="20.32" transform="translate(48.16 141.23) rotate(-44)"/>
      <rect class="st97" x="198.86" y=".86" height="20.32" transform="translate(48.16 141.23) rotate(-44)"/>
      <rect class="st301" x="198.86" y=".86" height="20.32" transform="translate(48.16 141.23) rotate(-44)"/>
      <rect class="st229" x="198.86" y=".86" height="20.32" transform="translate(48.16 141.23) rotate(-44)"/>
      <rect class="st209" x="198.86" y=".86" height="20.32" transform="translate(48.16 141.23) rotate(-44)"/>
      <rect class="st180" x="198.86" y=".86" height="20.32" transform="translate(48.16 141.23) rotate(-44)"/>
      <rect class="st298" x="198.86" y=".86" height="20.32" transform="translate(48.16 141.23) rotate(-44)"/>
      <rect class="st168" x="198.86" y=".86" height="20.32" transform="translate(48.16 141.23) rotate(-44)"/>
      <rect class="st170" x="198.86" y=".86" height="20.32" transform="translate(48.16 141.23) rotate(-44)"/>
      <rect class="st210" x="198.86" y=".86" height="20.32" transform="translate(48.16 141.23) rotate(-44)"/>
      <rect class="st318" x="198.86" y=".86" height="20.32" transform="translate(48.16 141.23) rotate(-44)"/>
      <rect class="st328" x="198.86" y=".86" height="20.32" transform="translate(48.16 141.23) rotate(-44)"/>
      <rect class="st310" x="198.86" y=".86" height="20.32" transform="translate(48.16 141.23) rotate(-44)"/>
      <polygon class="st310" points="205.92 18.33 191.8 3.71 205.92 3.71 205.92 18.33"/>
    </g>
  </g>
  <g class="st176">
    <polygon class="st214" points="0 58.8 0 58.8 0 5.82 37.38 5.82 37.38 58.8 0 58.8"/>
    <path class="st214" d="M0,58.35l.58.45-.58-.45Z"/>
    <polygon class="st82" points="0 57.9 1.15 58.8 .58 58.8 0 58.35 0 57.9"/>
    <polygon class="st96" points="0 57.45 1.73 58.8 1.15 58.8 0 57.9 0 57.45"/>
    <polygon class="st194" points="0 57 2.3 58.8 1.73 58.8 0 57.45 0 57"/>
    <polygon class="st273" points="0 56.55 2.88 58.8 2.3 58.8 0 57 0 56.55"/>
    <polygon class="st319" points="0 56.1 3.45 58.8 2.88 58.8 0 56.55 0 56.1"/>
    <polygon class="st296" points="0 55.65 4.03 58.8 3.45 58.8 0 56.1 0 55.65"/>
    <polygon class="st148" points="0 55.2 4.6 58.8 4.03 58.8 0 55.65 0 55.2"/>
    <polygon class="st70" points="0 54.75 5.18 58.8 4.6 58.8 0 55.2 0 54.75"/>
    <polygon class="st234" points="0 54.3 5.75 58.8 5.18 58.8 0 54.75 0 54.3"/>
    <polygon class="st305" points="0 53.85 6.33 58.8 5.75 58.8 0 54.3 0 53.85"/>
    <polygon class="st139" points="0 53.4 6.91 58.8 6.33 58.8 0 53.85 0 53.4"/>
    <polygon class="st73" points="0 52.96 7.48 58.8 6.91 58.8 0 53.4 0 52.96"/>
    <polygon class="st69" points="0 52.51 8.06 58.8 7.48 58.8 0 52.96 0 52.51"/>
    <polygon class="st46" points="0 52.06 8.63 58.8 8.06 58.8 0 52.51 0 52.06"/>
    <polygon class="st10" points="0 51.61 9.21 58.8 8.63 58.8 0 52.06 0 51.61"/>
    <polygon class="st37" points="0 51.16 9.78 58.8 9.21 58.8 0 51.61 0 51.16"/>
    <polygon class="st11" points="0 50.71 10.36 58.8 9.78 58.8 0 51.16 0 50.71"/>
    <polygon class="st236" points="0 50.26 10.93 58.8 10.36 58.8 0 50.71 0 50.26"/>
    <polygon class="st279" points="0 49.81 11.51 58.8 10.93 58.8 0 50.26 0 49.81"/>
    <polygon class="st275" points="0 49.36 12.08 58.8 11.51 58.8 0 49.81 0 49.36"/>
    <polygon class="st117" points="0 48.91 12.66 58.8 12.08 58.8 0 49.36 0 48.91"/>
    <polygon class="st299" points="0 48.46 13.24 58.8 12.66 58.8 0 48.91 0 48.46"/>
    <polygon class="st147" points="0 48.01 13.81 58.8 13.24 58.8 0 48.46 0 48.01"/>
    <polygon class="st163" points="0 47.56 14.39 58.8 13.81 58.8 0 48.01 0 47.56"/>
    <polygon class="st163" points="0 47.19 14.86 58.8 14.39 58.8 0 47.56 0 47.19"/>
    <polygon class="st150" points="0 46.82 15.34 58.8 14.86 58.8 0 47.19 0 46.82"/>
    <polygon class="st92" points="0 46.45 15.81 58.8 15.34 58.8 0 46.82 0 46.45"/>
    <polygon class="st31" points="0 46.08 16.28 58.8 15.81 58.8 0 46.45 0 46.08"/>
    <polygon class="st52" points="0 45.71 16.76 58.8 16.28 58.8 0 46.08 0 45.71"/>
    <polygon class="st268" points="0 45.34 17.23 58.8 16.76 58.8 0 45.71 0 45.34"/>
    <polygon class="st166" points="0 44.97 17.71 58.8 17.23 58.8 0 45.34 0 44.97"/>
    <polygon class="st254" points="0 44.6 18.18 58.8 17.71 58.8 0 44.97 0 44.6"/>
    <polygon class="st205" points="0 44.23 18.65 58.8 18.18 58.8 0 44.6 0 44.23"/>
    <polygon class="st249" points="0 43.86 19.13 58.8 18.65 58.8 0 44.23 0 43.86"/>
    <polygon class="st68" points="0 43.48 19.6 58.8 19.13 58.8 0 43.86 0 43.48"/>
    <polygon class="st107" points="0 43.11 20.08 58.8 19.6 58.8 0 43.48 0 43.11"/>
    <polygon class="st262" points="0 42.74 20.55 58.8 20.08 58.8 0 43.11 0 42.74"/>
    <polygon class="st314" points="0 42.37 21.02 58.8 20.55 58.8 0 42.74 0 42.37"/>
    <polygon class="st20" points="0 42 21.5 58.8 21.02 58.8 0 42.37 0 42"/>
    <polygon class="st179" points="0 41.63 21.97 58.8 21.5 58.8 0 42 0 41.63"/>
    <polygon class="st39" points="0 41.26 22.45 58.8 21.97 58.8 0 41.63 0 41.26"/>
    <polygon class="st0" points="0 40.89 22.92 58.8 22.45 58.8 0 41.26 0 40.89"/>
    <polygon class="st27" points="0 40.52 23.4 58.8 22.92 58.8 0 40.89 0 40.52"/>
    <polygon class="st146" points="0 40.15 23.87 58.8 23.4 58.8 0 40.52 0 40.15"/>
    <polygon class="st257" points="0 39.78 24.32 58.78 24.31 58.8 23.87 58.8 0 40.15 0 39.78"/>
    <polygon class="st47" points="0 39.41 24.5 58.55 24.32 58.78 0 39.78 0 39.41"/>
    <polygon class="st23" points="0 39.04 24.68 58.32 24.5 58.55 0 39.41 0 39.04"/>
    <polygon class="st77" points="0 38.67 24.86 58.09 24.68 58.32 0 39.04 0 38.67"/>
    <polygon class="st267" points="0 38.3 25.04 57.86 24.86 58.09 0 38.67 0 38.3"/>
    <polygon class="st306" points="0 37.93 25.22 57.63 25.04 57.86 0 38.3 0 37.93"/>
    <polygon class="st125" points="0 37.56 25.4 57.4 25.22 57.63 0 37.93 0 37.56"/>
    <polygon class="st103" points="0 37.19 25.58 57.17 25.4 57.4 0 37.56 0 37.19"/>
    <polygon class="st33" points="0 36.82 25.76 56.94 25.58 57.17 0 37.19 0 36.82"/>
    <polygon class="st5" points="0 36.45 25.94 56.71 25.76 56.94 0 36.82 0 36.45"/>
    <polygon class="st118" points="0 36.08 26.12 56.48 25.94 56.71 0 36.45 0 36.08"/>
    <polygon class="st265" points="0 35.71 26.3 56.25 26.12 56.48 0 36.08 0 35.71"/>
    <polygon class="st165" points="0 35.34 26.48 56.02 26.3 56.25 0 35.71 0 35.34"/>
    <polygon class="st43" points="0 34.96 26.66 55.79 26.48 56.02 0 35.34 0 34.96"/>
    <polygon class="st259" points="0 34.59 26.84 55.56 26.66 55.79 0 34.96 0 34.59"/>
    <polygon class="st1" points="0 34.22 27.02 55.33 26.84 55.56 0 34.59 0 34.22"/>
    <polygon class="st72" points="0 33.85 27.2 55.1 27.02 55.33 0 34.22 0 33.85"/>
    <polygon class="st42" points="0 33.48 27.38 54.87 27.2 55.1 0 33.85 0 33.48"/>
    <polygon class="st81" points="0 33.11 27.56 54.64 27.38 54.87 0 33.48 0 33.11"/>
    <polygon class="st324" points="0 32.74 27.74 54.41 27.56 54.64 0 33.11 0 32.74"/>
    <polygon class="st202" points="0 32.37 27.92 54.18 27.74 54.41 0 32.74 0 32.37"/>
    <polygon class="st93" points="0 32 28.1 53.95 27.92 54.18 0 32.37 0 32"/>
    <polygon class="st21" points="0 31.63 28.28 53.72 28.1 53.95 0 32 0 31.63"/>
    <polygon class="st12" points="0 31.26 28.46 53.49 28.28 53.72 0 31.63 0 31.26"/>
    <polygon class="st238" points="0 30.89 28.64 53.26 28.46 53.49 0 31.26 0 30.89"/>
    <polygon class="st193" points="0 30.52 28.82 53.03 28.64 53.26 0 30.89 0 30.52"/>
    <polygon class="st327" points="0 30.15 29 52.8 28.82 53.03 0 30.52 0 30.15"/>
    <polygon class="st231" points="0 29.78 29.18 52.57 29 52.8 0 30.15 0 29.78"/>
    <polygon class="st86" points="0 29.41 29.35 52.34 29.18 52.57 0 29.78 0 29.41"/>
    <polygon class="st228" points="0 29.04 29.53 52.11 29.35 52.34 0 29.41 0 29.04"/>
    <polygon class="st167" points="0 28.67 29.71 51.88 29.53 52.11 0 29.04 0 28.67"/>
    <polygon class="st290" points="0 28.3 29.89 51.65 29.71 51.88 0 28.67 0 28.3"/>
    <polygon class="st174" points="0 27.93 30.07 51.42 29.89 51.65 0 28.3 0 27.93"/>
    <polygon class="st91" points="0 27.56 30.25 51.19 30.07 51.42 0 27.93 0 27.56"/>
    <polygon class="st140" points="0 27.19 30.43 50.96 30.25 51.19 0 27.56 0 27.19"/>
    <polygon class="st144" points="0 26.82 30.61 50.73 30.43 50.96 0 27.19 0 26.82"/>
    <polygon class="st244" points="0 26.44 30.79 50.5 30.61 50.73 0 26.82 0 26.44"/>
    <polygon class="st131" points="0 26.07 30.97 50.27 30.79 50.5 0 26.44 0 26.07"/>
    <polygon class="st250" points="0 25.7 31.15 50.04 30.97 50.27 0 26.07 0 25.7"/>
    <polygon class="st250" points="0 25.31 31.34 49.8 31.15 50.04 0 25.7 0 25.31"/>
    <polygon class="st157" points="0 24.92 31.53 49.56 31.34 49.8 0 25.31 0 24.92"/>
    <polygon class="st284" points="0 24.53 31.72 49.31 31.53 49.56 0 24.92 0 24.53"/>
    <polygon class="st108" points="0 24.14 31.91 49.07 31.72 49.31 0 24.53 0 24.14"/>
    <polygon class="st54" points="0 23.75 32.1 48.83 31.91 49.07 0 24.14 0 23.75"/>
    <polygon class="st175" points="0 23.36 32.29 48.58 32.1 48.83 0 23.75 0 23.36"/>
    <polygon class="st41" points="0 22.96 32.48 48.34 32.29 48.58 0 23.36 0 22.96"/>
    <polygon class="st28" points="0 22.57 32.67 48.1 32.48 48.34 0 22.96 0 22.57"/>
    <polygon class="st294" points="0 22.18 32.86 47.86 32.67 48.1 0 22.57 0 22.18"/>
    <polygon class="st159" points="0 21.79 33.05 47.61 32.86 47.86 0 22.18 0 21.79"/>
    <polygon class="st311" points="0 21.4 33.24 47.37 33.05 47.61 0 21.79 0 21.4"/>
    <polygon class="st142" points="0 21.01 33.43 47.13 33.24 47.37 0 21.4 0 21.01"/>
    <polygon class="st245" points="0 20.62 33.62 46.88 33.43 47.13 0 21.01 0 20.62"/>
    <polygon class="st201" points="0 20.23 33.81 46.64 33.62 46.88 0 20.62 0 20.23"/>
    <polygon class="st218" points="0 19.83 34 46.4 33.81 46.64 0 20.23 0 19.83"/>
    <polygon class="st241" points="0 19.44 34.19 46.15 34 46.4 0 19.83 0 19.44"/>
    <polygon class="st161" points="0 19.05 34.38 45.91 34.19 46.15 0 19.44 0 19.05"/>
    <polygon class="st309" points="0 18.66 34.57 45.67 34.38 45.91 0 19.05 0 18.66"/>
    <polygon class="st171" points="0 18.27 34.76 45.43 34.57 45.67 0 18.66 0 18.27"/>
    <polygon class="st199" points="0 17.88 34.95 45.18 34.76 45.43 0 18.27 0 17.88"/>
    <polygon class="st277" points="0 17.49 35.14 44.94 34.95 45.18 0 17.88 0 17.49"/>
    <polygon class="st225" points="0 17.09 35.33 44.7 35.14 44.94 0 17.49 0 17.09"/>
    <polygon class="st242" points="0 16.7 35.52 44.45 35.33 44.7 0 17.09 0 16.7"/>
    <polygon class="st152" points="0 16.31 35.71 44.21 35.52 44.45 0 16.7 0 16.31"/>
    <polygon class="st239" points="0 15.92 35.9 43.97 35.71 44.21 0 16.31 0 15.92"/>
    <polygon class="st121" points="0 15.53 36.09 43.72 35.9 43.97 0 15.92 0 15.53"/>
    <polygon class="st325" points="0 15.14 36.28 43.48 36.09 43.72 0 15.53 0 15.14"/>
    <polygon class="st232" points="0 14.75 36.47 43.24 36.28 43.48 0 15.14 0 14.75"/>
    <polygon class="st114" points="0 14.36 36.66 43 36.47 43.24 0 14.75 0 14.36"/>
    <polygon class="st40" points="0 13.96 36.85 42.75 36.66 43 0 14.36 0 13.96"/>
    <polygon class="st297" points="0 13.57 37.04 42.51 36.85 42.75 0 13.96 0 13.57"/>
    <polygon class="st119" points="0 13.18 37.23 42.27 37.04 42.51 0 13.57 0 13.18"/>
    <polygon class="st110" points="0 12.79 37.38 41.99 37.38 42.07 37.23 42.27 0 13.18 0 12.79"/>
    <polygon class="st102" points="0 12.4 37.38 41.6 37.38 41.99 0 12.79 0 12.4"/>
    <polygon class="st8" points="0 12.01 37.38 41.21 37.38 41.6 0 12.4 0 12.01"/>
    <polygon class="st38" points="0 11.62 37.38 40.82 37.38 41.21 0 12.01 0 11.62"/>
    <polygon class="st255" points="0 11.22 37.38 40.43 37.38 40.82 0 11.62 0 11.22"/>
    <polygon class="st65" points="0 10.83 37.38 40.04 37.38 40.43 0 11.22 0 10.83"/>
    <polygon class="st256" points="0 10.44 37.38 39.65 37.38 40.04 0 10.83 0 10.44"/>
    <polygon class="st60" points="0 10.05 37.38 39.26 37.38 39.65 0 10.44 0 10.05"/>
    <polygon class="st304" points="0 9.66 37.38 38.86 37.38 39.26 0 10.05 0 9.66"/>
    <polygon class="st126" points="0 9.27 37.38 38.47 37.38 38.86 0 9.66 0 9.27"/>
    <polygon class="st200" points="0 8.88 37.38 38.08 37.38 38.47 0 9.27 0 8.88"/>
    <polygon class="st53" points="0 8.49 37.38 37.69 37.38 38.08 0 8.88 0 8.49"/>
    <polygon class="st192" points="0 8.09 37.38 37.3 37.38 37.69 0 8.49 0 8.09"/>
    <polygon class="st138" points="0 7.7 37.38 36.91 37.38 37.3 0 8.09 0 7.7"/>
    <polygon class="st18" points="0 7.31 37.38 36.52 37.38 36.91 0 7.7 0 7.31"/>
    <polygon class="st94" points="0 6.92 37.38 36.12 37.38 36.52 0 7.31 0 6.92"/>
    <polygon class="st24" points="0 6.53 37.38 35.73 37.38 36.12 0 6.92 0 6.53"/>
    <polygon class="st55" points="0 6.14 37.38 35.34 37.38 35.73 0 6.53 0 6.14"/>
    <polygon class="st190" points=".09 5.82 37.38 34.95 37.38 35.34 0 6.14 0 5.82 .09 5.82"/>
    <polygon class="st278" points=".6 5.82 37.38 34.56 37.38 34.95 .09 5.82 .6 5.82"/>
    <polygon class="st182" points="1.1 5.82 37.38 34.17 37.38 34.56 .6 5.82 1.1 5.82"/>
    <polygon class="st2" points="1.6 5.82 37.38 33.78 37.38 34.17 1.1 5.82 1.6 5.82"/>
    <polygon class="st263" points="2.1 5.82 37.38 33.39 37.38 33.78 1.6 5.82 2.1 5.82"/>
    <polygon class="st195" points="2.6 5.82 37.38 32.99 37.38 33.39 2.1 5.82 2.6 5.82"/>
    <polygon class="st206" points="3.1 5.82 37.38 32.6 37.38 32.99 2.6 5.82 3.1 5.82"/>
    <polygon class="st220" points="3.6 5.82 37.38 32.21 37.38 32.6 3.1 5.82 3.6 5.82"/>
    <polygon class="st189" points="4.1 5.82 37.38 31.82 37.38 32.21 3.6 5.82 4.1 5.82"/>
    <polygon class="st208" points="4.6 5.82 37.38 31.43 37.38 31.82 4.1 5.82 4.6 5.82"/>
    <polygon class="st320" points="5.1 5.82 37.38 31.04 37.38 31.43 4.6 5.82 5.1 5.82"/>
    <polygon class="st315" points="5.6 5.82 37.38 30.65 37.38 31.04 5.1 5.82 5.6 5.82"/>
    <polygon class="st243" points="6.11 5.82 37.38 30.25 37.38 30.65 5.6 5.82 6.11 5.82"/>
    <polygon class="st264" points="6.61 5.82 37.38 29.86 37.38 30.25 6.11 5.82 6.61 5.82"/>
    <polygon class="st127" points="7.11 5.82 37.38 29.47 37.38 29.86 6.61 5.82 7.11 5.82"/>
    <polygon class="st14" points="7.61 5.82 37.38 29.08 37.38 29.47 7.11 5.82 7.61 5.82"/>
    <polygon class="st237" points="8.11 5.82 37.38 28.69 37.38 29.08 7.61 5.82 8.11 5.82"/>
    <polygon class="st16" points="8.61 5.82 37.38 28.3 37.38 28.69 8.11 5.82 8.61 5.82"/>
    <polygon class="st281" points="9.11 5.82 37.38 27.91 37.38 28.3 8.61 5.82 9.11 5.82"/>
    <polygon class="st219" points="9.61 5.82 37.38 27.52 37.38 27.91 9.11 5.82 9.61 5.82"/>
    <polygon class="st246" points="10.11 5.82 37.38 27.12 37.38 27.52 9.61 5.82 10.11 5.82"/>
    <polygon class="st15" points="10.61 5.82 37.38 26.73 37.38 27.12 10.11 5.82 10.61 5.82"/>
    <polygon class="st321" points="11.11 5.82 37.38 26.34 37.38 26.73 10.61 5.82 11.11 5.82"/>
    <polygon class="st211" points="11.61 5.82 37.38 25.95 37.38 26.34 11.11 5.82 11.61 5.82"/>
    <polygon class="st191" points="12.12 5.82 37.38 25.56 37.38 25.95 11.61 5.82 12.12 5.82"/>
    <rect class="st191" x="24.75" y="-.34" height="32.06" transform="translate(-2.85 25.53) rotate(-52)"/>
    <rect class="st160" x="24.75" y="-.34" height="32.06" transform="translate(-2.85 25.53) rotate(-52)"/>
    <rect class="st183" x="24.75" y="-.34" height="32.06" transform="translate(-2.85 25.53) rotate(-52)"/>
    <rect class="st45" x="24.75" y="-.34" height="32.06" transform="translate(-2.85 25.53) rotate(-52)"/>
    <rect class="st113" x="24.75" y="-.34" height="32.06" transform="translate(-2.85 25.53) rotate(-52)"/>
    <rect class="st3" x="24.75" y="-.34" height="32.06" transform="translate(-2.85 25.53) rotate(-52)"/>
    <rect class="st61" x="24.75" y="-.34" height="32.06" transform="translate(-2.85 25.53) rotate(-52)"/>
    <rect class="st307" x="24.75" y="-.34" height="32.06" transform="translate(-2.85 25.53) rotate(-52)"/>
    <rect class="st124" x="24.75" y="-.34" height="32.06" transform="translate(-2.85 25.53) rotate(-52)"/>
    <rect class="st123" x="24.75" y="-.34" height="32.06" transform="translate(-2.85 25.53) rotate(-52)"/>
    <rect class="st261" x="24.75" y="-.34" height="32.06" transform="translate(-2.85 25.53) rotate(-52)"/>
    <rect class="st71" x="24.75" y="-.34" height="32.06" transform="translate(-2.85 25.53) rotate(-52)"/>
    <rect class="st224" x="24.75" y="-.34" height="32.06" transform="translate(-2.85 25.53) rotate(-52)"/>
    <rect class="st95" x="24.75" y="-.34" height="32.06" transform="translate(-2.85 25.53) rotate(-52)"/>
    <rect class="st64" x="24.75" y="-.34" height="32.06" transform="translate(-2.85 25.53) rotate(-52)"/>
    <rect class="st230" x="24.75" y="-.34" height="32.06" transform="translate(-2.85 25.53) rotate(-52)"/>
    <rect class="st129" x="24.75" y="-.34" height="32.06" transform="translate(-2.85 25.53) rotate(-52)"/>
    <rect class="st317" x="24.75" y="-.34" height="32.06" transform="translate(-2.85 25.53) rotate(-52)"/>
    <rect class="st282" x="24.75" y="-.34" height="32.06" transform="translate(-2.85 25.53) rotate(-52)"/>
    <rect class="st178" x="24.75" y="-.34" height="32.06" transform="translate(-2.85 25.53) rotate(-52)"/>
    <rect class="st111" x="24.75" y="-.34" height="32.06" transform="translate(-2.85 25.53) rotate(-52)"/>
    <rect class="st44" x="24.75" y="-.34" height="32.06" transform="translate(-2.85 25.53) rotate(-52)"/>
    <rect class="st32" x="24.75" y="-.34" height="32.06" transform="translate(-2.85 25.53) rotate(-52)"/>
    <rect class="st326" x="24.75" y="-.34" height="32.06" transform="translate(-2.85 25.53) rotate(-52)"/>
    <rect class="st105" x="24.75" y="-.34" height="32.06" transform="translate(-2.85 25.53) rotate(-52)"/>
    <rect class="st177" x="24.75" y="-.34" height="32.06" transform="translate(-2.85 25.53) rotate(-52)"/>
    <rect class="st80" x="24.75" y="-.34" height="32.06" transform="translate(-2.85 25.53) rotate(-52)"/>
    <rect class="st196" x="24.75" y="-.34" height="32.06" transform="translate(-2.85 25.53) rotate(-52)"/>
    <rect class="st276" x="24.75" y="-.34" height="32.06" transform="translate(-2.85 25.53) rotate(-52)"/>
    <rect class="st97" x="24.75" y="-.34" height="32.06" transform="translate(-2.85 25.53) rotate(-52)"/>
    <rect class="st301" x="24.75" y="-.34" height="32.06" transform="translate(-2.85 25.53) rotate(-52)"/>
    <rect class="st229" x="24.75" y="-.34" height="32.06" transform="translate(-2.85 25.53) rotate(-52)"/>
    <rect class="st209" x="24.75" y="-.34" height="32.06" transform="translate(-2.85 25.53) rotate(-52)"/>
    <rect class="st180" x="24.75" y="-.34" height="32.06" transform="translate(-2.85 25.53) rotate(-52)"/>
    <rect class="st298" x="24.75" y="-.34" height="32.06" transform="translate(-2.85 25.53) rotate(-52)"/>
    <rect class="st168" x="24.75" y="-.34" height="32.06" transform="translate(-2.85 25.53) rotate(-52)"/>
    <rect class="st170" x="24.75" y="-.34" height="32.06" transform="translate(-2.85 25.53) rotate(-52)"/>
    <rect class="st210" x="24.75" y="-.34" height="32.06" transform="translate(-2.85 25.53) rotate(-52)"/>
    <rect class="st318" x="24.75" y="-.34" height="32.06" transform="translate(-2.85 25.53) rotate(-52)"/>
    <rect class="st328" x="24.75" y="-.34" height="32.06" transform="translate(-2.85 25.53) rotate(-52)"/>
    <rect class="st310" x="24.75" y="-.34" height="32.06" transform="translate(-2.85 25.53) rotate(-52)"/>
    <polygon class="st310" points="37.38 25.56 12.12 5.82 37.38 5.82 37.38 25.56"/>
  </g>
  <g class="st34">
    <g class="st156">
      <path class="st115" d="M63.72,56.83l3.82,4.1-3.82-4.1Z"/>
      <polygon class="st137" points="63.72 52.73 71.37 60.93 67.54 60.93 63.72 56.83 63.72 52.73"/>
      <polygon class="st213" points="63.72 48.63 75.19 60.93 71.37 60.93 63.72 52.73 63.72 48.63"/>
      <polygon class="st22" points="63.72 44.54 79.01 60.93 75.19 60.93 63.72 48.63 63.72 44.54"/>
      <polygon class="st135" points="67.04 43.99 82.83 60.93 79.01 60.93 63.72 44.54 63.72 43.99 67.04 43.99"/>
      <polygon class="st135" points="68.73 43.99 84.53 60.93 82.83 60.93 67.04 43.99 68.73 43.99"/>
      <polygon class="st49" points="70.43 43.99 86.23 60.93 84.53 60.93 68.73 43.99 70.43 43.99"/>
      <polygon class="st101" points="72.13 43.99 87.92 60.93 86.23 60.93 70.43 43.99 72.13 43.99"/>
      <polygon class="st57" points="73.82 43.99 89.62 60.93 87.92 60.93 72.13 43.99 73.82 43.99"/>
      <polygon class="st26" points="75.52 43.99 91.31 60.93 89.62 60.93 73.82 43.99 75.52 43.99"/>
      <polygon class="st293" points="77.22 43.99 93.01 60.93 91.31 60.93 75.52 43.99 77.22 43.99"/>
      <polygon class="st36" points="78.91 43.99 94.71 60.93 93.01 60.93 77.22 43.99 78.91 43.99"/>
      <polygon class="st274" points="80.61 43.99 96.4 60.93 94.71 60.93 78.91 43.99 80.61 43.99"/>
      <polygon class="st291" points="82.31 43.99 98.1 60.93 96.4 60.93 80.61 43.99 82.31 43.99"/>
      <polygon class="st287" points="84 43.99 99.8 60.93 98.1 60.93 82.31 43.99 84 43.99"/>
      <polygon class="st313" points="85.7 43.99 101.49 60.93 99.8 60.93 84 43.99 85.7 43.99"/>
      <polygon class="st233" points="87.39 43.99 103.19 60.93 101.49 60.93 85.7 43.99 87.39 43.99"/>
      <polygon class="st252" points="89.09 43.99 104.88 60.93 103.19 60.93 87.39 43.99 89.09 43.99"/>
      <polygon class="st252" points="90.09 43.99 105.89 60.93 104.88 60.93 89.09 43.99 90.09 43.99"/>
      <polygon class="st62" points="91.1 43.99 106.89 60.93 105.89 60.93 90.09 43.99 91.1 43.99"/>
      <polygon class="st258" points="92.1 43.99 107.89 60.93 106.89 60.93 91.1 43.99 92.1 43.99"/>
      <polygon class="st128" points="93.1 43.99 108.89 60.93 107.89 60.93 92.1 43.99 93.1 43.99"/>
      <polygon class="st104" points="94.1 43.99 109.9 60.93 108.89 60.93 93.1 43.99 94.1 43.99"/>
      <polygon class="st145" points="95.1 43.99 110.9 60.93 109.9 60.93 94.1 43.99 95.1 43.99"/>
      <polygon class="st6" points="96.11 43.99 111.9 60.93 110.9 60.93 95.1 43.99 96.11 43.99"/>
      <polygon class="st136" points="97.11 43.99 112.9 60.93 111.9 60.93 96.11 43.99 97.11 43.99"/>
      <polygon class="st56" points="98.11 43.99 113.91 60.93 112.9 60.93 97.11 43.99 98.11 43.99"/>
      <polygon class="st316" points="99.11 43.99 114.91 60.93 113.91 60.93 98.11 43.99 99.11 43.99"/>
      <polygon class="st99" points="100.12 43.99 115.91 60.93 114.91 60.93 99.11 43.99 100.12 43.99"/>
      <polygon class="st198" points="101.12 43.99 116.91 60.93 115.91 60.93 100.12 43.99 101.12 43.99"/>
      <polygon class="st248" points="102.12 43.99 117.92 60.93 116.91 60.93 101.12 43.99 102.12 43.99"/>
      <polygon class="st253" points="103.12 43.99 118.92 60.93 117.92 60.93 102.12 43.99 103.12 43.99"/>
      <polygon class="st59" points="104.13 43.99 119.92 60.93 118.92 60.93 103.12 43.99 104.13 43.99"/>
      <polygon class="st98" points="105.13 43.99 120.92 60.93 119.92 60.93 104.13 43.99 105.13 43.99"/>
      <polygon class="st100" points="106.13 43.99 121.93 60.93 120.92 60.93 105.13 43.99 106.13 43.99"/>
      <polygon class="st50" points="107.13 43.99 122.93 60.93 121.93 60.93 106.13 43.99 107.13 43.99"/>
      <polygon class="st88" points="108.14 43.99 123.93 60.93 122.93 60.93 107.13 43.99 108.14 43.99"/>
      <polygon class="st13" points="109.14 43.99 124.93 60.93 123.93 60.93 108.14 43.99 109.14 43.99"/>
      <polygon class="st67" points="110.14 43.99 125.94 60.93 124.93 60.93 109.14 43.99 110.14 43.99"/>
      <polygon class="st221" points="111.14 43.99 126.94 60.93 125.94 60.93 110.14 43.99 111.14 43.99"/>
      <polygon class="st221" points="112.12 43.99 127.92 60.93 126.94 60.93 111.14 43.99 112.12 43.99"/>
      <polygon class="st122" points="113.1 43.99 128.9 60.93 127.92 60.93 112.12 43.99 113.1 43.99"/>
      <polygon class="st30" points="114.08 43.99 129.88 60.93 128.9 60.93 113.1 43.99 114.08 43.99"/>
      <polygon class="st151" points="115.06 43.99 130.86 60.93 129.88 60.93 114.08 43.99 115.06 43.99"/>
      <polygon class="st292" points="116.04 43.99 131.84 60.93 130.86 60.93 115.06 43.99 116.04 43.99"/>
      <polygon class="st300" points="117.02 43.99 132.82 60.93 131.84 60.93 116.04 43.99 117.02 43.99"/>
      <polygon class="st133" points="118 43.99 133.8 60.93 132.82 60.93 117.02 43.99 118 43.99"/>
      <polygon class="st286" points="118.98 43.99 134.78 60.93 133.8 60.93 118 43.99 118.98 43.99"/>
      <polygon class="st215" points="119.96 43.99 135.76 60.93 134.78 60.93 118.98 43.99 119.96 43.99"/>
      <polygon class="st215" points="120.63 43.99 136.42 60.93 135.76 60.93 119.96 43.99 120.63 43.99"/>
      <polygon class="st286" points="121.29 43.99 137.08 60.93 136.42 60.93 120.63 43.99 121.29 43.99"/>
      <polygon class="st133" points="121.95 43.99 137.74 60.93 137.08 60.93 121.29 43.99 121.95 43.99"/>
      <polygon class="st300" points="122.61 43.99 138.4 60.93 137.74 60.93 121.95 43.99 122.61 43.99"/>
      <polygon class="st292" points="123.27 43.99 139.07 60.93 138.4 60.93 122.61 43.99 123.27 43.99"/>
      <polygon class="st109" points="123.93 43.99 139.73 60.93 139.07 60.93 123.27 43.99 123.93 43.99"/>
      <polygon class="st323" points="124.6 43.99 140.39 60.93 139.73 60.93 123.93 43.99 124.6 43.99"/>
      <polygon class="st120" points="125.26 43.99 141.05 60.93 140.39 60.93 124.6 43.99 125.26 43.99"/>
      <polygon class="st272" points="125.92 43.99 141.71 60.93 141.05 60.93 125.26 43.99 125.92 43.99"/>
      <polygon class="st130" points="126.58 43.99 142.37 60.93 141.71 60.93 125.92 43.99 126.58 43.99"/>
      <polygon class="st207" points="127.24 43.99 143.04 60.93 142.37 60.93 126.58 43.99 127.24 43.99"/>
      <polygon class="st289" points="127.9 43.99 143.7 60.93 143.04 60.93 127.24 43.99 127.9 43.99"/>
      <polygon class="st322" points="128.56 43.99 144.36 60.93 143.7 60.93 127.9 43.99 128.56 43.99"/>
      <polygon class="st186" points="129.23 43.99 145.02 60.93 144.36 60.93 128.56 43.99 129.23 43.99"/>
      <polygon class="st48" points="129.89 43.99 145.68 60.93 145.02 60.93 129.23 43.99 129.89 43.99"/>
      <polygon class="st251" points="130.55 43.99 146.34 60.93 145.68 60.93 129.89 43.99 130.55 43.99"/>
      <polygon class="st116" points="131.21 43.99 147.01 60.93 146.34 60.93 130.55 43.99 131.21 43.99"/>
      <polygon class="st270" points="131.87 43.99 147.67 60.93 147.01 60.93 131.21 43.99 131.87 43.99"/>
      <polygon class="st164" points="132.53 43.99 148.33 60.93 147.67 60.93 131.87 43.99 132.53 43.99"/>
      <polygon class="st74" points="133.2 43.99 148.99 60.93 148.33 60.93 132.53 43.99 133.2 43.99"/>
      <polygon class="st74" points="134.3 43.99 150.09 60.93 148.99 60.93 133.2 43.99 134.3 43.99"/>
      <polygon class="st25" points="135.4 43.99 151.2 60.93 150.09 60.93 134.3 43.99 135.4 43.99"/>
      <polygon class="st51" points="136.5 43.99 152.3 60.93 151.2 60.93 135.4 43.99 136.5 43.99"/>
      <polygon class="st85" points="137.61 43.99 153.4 60.93 152.3 60.93 136.5 43.99 137.61 43.99"/>
      <polygon class="st4" points="138.71 43.99 154.5 60.93 153.4 60.93 137.61 43.99 138.71 43.99"/>
      <polygon class="st185" points="139.81 43.99 155.61 60.93 154.5 60.93 138.71 43.99 139.81 43.99"/>
      <polygon class="st90" points="140.91 43.99 156.71 60.93 155.61 60.93 139.81 43.99 140.91 43.99"/>
      <polygon class="st84" points="142.02 43.99 157.81 60.93 156.71 60.93 140.91 43.99 142.02 43.99"/>
      <polygon class="st258" points="143.12 43.99 158.91 60.93 157.81 60.93 142.02 43.99 143.12 43.99"/>
      <polygon class="st62" points="144.22 43.99 160.02 60.93 158.91 60.93 143.12 43.99 144.22 43.99"/>
      <polygon class="st252" points="145.32 43.99 161.12 60.93 160.02 60.93 144.22 43.99 145.32 43.99"/>
      <polygon class="st233" points="146.43 43.99 162.22 60.93 161.12 60.93 145.32 43.99 146.43 43.99"/>
      <polygon class="st313" points="147.53 43.99 163.32 60.93 162.22 60.93 146.43 43.99 147.53 43.99"/>
      <polygon class="st287" points="148.63 43.99 164.43 60.93 163.32 60.93 147.53 43.99 148.63 43.99"/>
      <polygon class="st291" points="149.74 43.99 165.53 60.93 164.43 60.93 148.63 43.99 149.74 43.99"/>
      <polygon class="st274" points="150.84 43.99 166.63 60.93 165.53 60.93 149.74 43.99 150.84 43.99"/>
      <polygon class="st274" points="152.75 43.99 168.54 60.93 166.63 60.93 150.84 43.99 152.75 43.99"/>
      <polygon class="st36" points="154.66 43.99 170.45 60.93 168.54 60.93 152.75 43.99 154.66 43.99"/>
      <polygon class="st266" points="156.57 43.99 172.37 60.93 170.45 60.93 154.66 43.99 156.57 43.99"/>
      <polygon class="st285" points="158.48 43.99 174.28 60.93 172.37 60.93 156.57 43.99 158.48 43.99"/>
      <polygon class="st223" points="160.39 43.99 176.19 60.93 174.28 60.93 158.48 43.99 160.39 43.99"/>
      <polygon class="st217" points="162.31 43.99 178.1 60.93 176.19 60.93 160.39 43.99 162.31 43.99"/>
      <polygon class="st260" points="164.22 43.99 180.01 60.93 178.1 60.93 162.31 43.99 164.22 43.99"/>
      <polygon class="st7" points="166.13 43.99 181.92 60.93 180.01 60.93 164.22 43.99 166.13 43.99"/>
      <polygon class="st226" points="168.04 43.99 183.83 60.93 181.92 60.93 166.13 43.99 168.04 43.99"/>
      <polygon class="st216" points="169.95 43.99 185.74 60.93 183.83 60.93 168.04 43.99 169.95 43.99"/>
      <polygon class="st216" points="178.28 43.99 194.08 60.93 185.74 60.93 169.95 43.99 178.28 43.99"/>
      <polygon class="st19" points="186.61 43.99 202.41 60.93 194.08 60.93 178.28 43.99 186.61 43.99"/>
      <polygon class="st115" points="194.94 43.99 207.27 57.22 207.27 60.93 202.41 60.93 186.61 43.99 194.94 43.99"/>
      <polygon class="st115" points="207.27 57.22 194.94 43.99 207.27 43.99 207.27 57.22"/>
    </g>
  </g>
</svg>